<?xml version="1.0" encoding="UTF-8" standalone="no"?>
<!-- Created with Inkscape (http://www.inkscape.org/) -->

<svg
   xmlns:dc="http://purl.org/dc/elements/1.1/"
   xmlns:cc="http://creativecommons.org/ns#"
   xmlns:rdf="http://www.w3.org/1999/02/22-rdf-syntax-ns#"
   xmlns:svg="http://www.w3.org/2000/svg"
   xmlns="http://www.w3.org/2000/svg"
   xmlns:sodipodi="http://sodipodi.sourceforge.net/DTD/sodipodi-0.dtd"
   xmlns:inkscape="http://www.inkscape.org/namespaces/inkscape"
   width="300px"
   height="300px"
   viewBox="0 0 300 300"
   version="1.1"
   id="SVGRoot"
   inkscape:version="0.92.4 (5da689c313, 2019-01-14)"
   sodipodi:docname="bar.svg">
  <defs
     id="defs815" />
  <sodipodi:namedview
     id="base"
     pagecolor="#ffffff"
     bordercolor="#666666"
     borderopacity="1.0"
     inkscape:pageopacity="0.0"
     inkscape:pageshadow="2"
     inkscape:zoom="0.98994949"
     inkscape:cx="373.90078"
     inkscape:cy="406.66984"
     inkscape:document-units="px"
     inkscape:current-layer="layer1"
     showgrid="false"
     inkscape:window-width="1855"
     inkscape:window-height="1057"
     inkscape:window-x="-8"
     inkscape:window-y="-8"
     inkscape:window-maximized="1" />
  <metadata
     id="metadata818">
    <rdf:RDF>
      <cc:Work
         rdf:about="">
        <dc:format>image/svg+xml</dc:format>
        <dc:type
           rdf:resource="http://purl.org/dc/dcmitype/StillImage" />
        <dc:title></dc:title>
      </cc:Work>
    </rdf:RDF>
  </metadata>
  <g
     inkscape:label="Layer 1"
     inkscape:groupmode="layer"
     id="layer1">
    <path
       style="fill:#000000;stroke-width:1"
       d="m 11.245421,151.80736 c -6.1308805,-1.20403 -11.50961047,-6.84085 -12.5996005,-13.20416 -1.45833,-8.5137 4.98655,-16.99749 13.7890105,-18.15128 1.79442,-0.2352 46.423608,-0.31642 137.908779,-0.25099 131.4699,0.094 135.30168,0.11451 136.89447,0.73116 6.12059,2.36961 10.15685,7.16943 11.04383,13.13303 1.17119,7.87455 -4.31756,15.79063 -12.19027,17.58124 -2.07461,0.47186 -16.22023,0.52203 -137.8384,0.48886 -74.539587,-0.0203 -136.193109,-0.16786 -137.007819,-0.32786 z m 47.141778,-8.75201 c 2.867545,-4.04185 4.697101,-6.92118 4.554326,-7.16755 -0.131255,-0.22648 -2.29688,-3.33361 -4.812503,-6.90474 l -4.573859,-6.49295 -19.402336,0.007 c -10.671283,0.004 -20.349716,0.1438 -21.507616,0.31128 -5.9269705,0.85724 -10.4936205,5.28615 -11.5908905,11.24126 -1.25836997,6.82938 3.68911,14.05021 10.5522105,15.40092 0.80161,0.15776 10.57678,0.30347 21.722588,0.3238 l 20.265113,0.0369 z m 59.479021,0.01 c 2.5649,-3.6175 4.62259,-6.76515 4.57263,-6.99478 -0.05,-0.22963 -2.18716,-3.37913 -4.74933,-6.9989 l -4.65849,-6.58137 H 84.176779 c -24.733573,0 -28.828114,0.0681 -28.671187,0.47707 0.159946,0.41682 6.443011,9.38947 8.523073,12.17154 l 0.756556,1.01189 -4.850183,6.83212 -4.850183,6.83212 29.05895,-0.0862 29.058955,-0.0862 z m 59.96703,0.27867 c 2.50443,-3.54892 4.65729,-6.62575 4.78415,-6.83739 0.12923,-0.2156 -1.87722,-3.34477 -4.56301,-7.11626 l -4.79367,-6.73144 -29.25094,-0.0862 c -16.08801,-0.0474 -29.25094,-0.001 -29.25094,0.10318 0,0.10414 2.01887,3.03037 4.48638,6.50273 2.4675,3.47235 4.58869,6.47893 4.71375,6.68129 0.12507,0.20235 -1.8938,3.35809 -4.48637,7.01274 -2.59256,3.65465 -4.71376,6.71092 -4.71376,6.79171 0,0.0808 13.16721,0.14359 29.26046,0.13954 l 29.26045,-0.007 4.5535,-6.45257 z m 60.11045,-0.27867 c 2.56491,-3.6175 4.62259,-6.76515 4.57263,-6.99478 -0.05,-0.22963 -2.18715,-3.37913 -4.74932,-6.9989 l -4.65849,-6.58139 h -29.17537 c -23.24848,0 -29.1247,0.0857 -28.92592,0.42162 0.1372,0.23189 2.27113,3.26593 4.74206,6.74231 2.47092,3.47638 4.49259,6.41935 4.49259,6.53993 0,0.12057 -1.7923,2.74046 -3.98289,5.82197 -2.19059,3.08151 -4.32649,6.09688 -4.74645,6.70083 l -0.76355,1.09807 29.26563,-0.0862 29.26562,-0.0862 z m 47.2175,6.37197 c 6.98794,-1.46202 11.84154,-8.37544 10.72919,-15.28252 -0.93361,-5.79717 -5.58115,-10.38027 -11.4715,-11.31246 -2.27494,-0.36002 -49.58256,-0.51704 -49.58256,-0.16456 0,0.10312 2.01887,3.02851 4.48637,6.50087 2.4675,3.47235 4.5887,6.47893 4.71376,6.68129 0.12506,0.20235 -1.89381,3.35809 -4.48637,7.01274 -2.59257,3.65465 -4.71376,6.71092 -4.71376,6.79171 0,0.35187 48.60597,0.13256 50.32487,-0.22707 z"
       id="path1382"
       inkscape:connector-curvature="0"
       sodipodi:nodetypes="sscscssssscsccsssscsccccscsccccccccscsscsssscccscscscsssccccssssscssss" />
  </g>
</svg>
