<?xml version="1.0" encoding="UTF-8" standalone="no"?>
<!-- Created with Inkscape (http://www.inkscape.org/) -->

<svg
   xmlns:dc="http://purl.org/dc/elements/1.1/"
   xmlns:cc="http://creativecommons.org/ns#"
   xmlns:rdf="http://www.w3.org/1999/02/22-rdf-syntax-ns#"
   xmlns:svg="http://www.w3.org/2000/svg"
   xmlns="http://www.w3.org/2000/svg"
   xmlns:sodipodi="http://sodipodi.sourceforge.net/DTD/sodipodi-0.dtd"
   xmlns:inkscape="http://www.inkscape.org/namespaces/inkscape"
   width="300px"
   height="300px"
   viewBox="0 0 300 300"
   version="1.1"
   id="SVGRoot"
   inkscape:version="0.92.4 (5da689c313, 2019-01-14)"
   sodipodi:docname="drawing.svg">
  <defs
     id="defs815" />
  <sodipodi:namedview
     id="base"
     pagecolor="#ffffff"
     bordercolor="#666666"
     borderopacity="1.0"
     inkscape:pageopacity="0.0"
     inkscape:pageshadow="2"
     inkscape:zoom="0.98994949"
     inkscape:cx="207.848"
     inkscape:cy="130.02208"
     inkscape:document-units="px"
     inkscape:current-layer="layer1"
     showgrid="false"
     inkscape:window-width="1855"
     inkscape:window-height="1057"
     inkscape:window-x="-8"
     inkscape:window-y="-8"
     inkscape:window-maximized="1" />
  <metadata
     id="metadata818">
    <rdf:RDF>
      <cc:Work
         rdf:about="">
        <dc:format>image/svg+xml</dc:format>
        <dc:type
           rdf:resource="http://purl.org/dc/dcmitype/StillImage" />
        <dc:title></dc:title>
      </cc:Work>
    </rdf:RDF>
  </metadata>
  <g
     inkscape:label="Layer 1"
     inkscape:groupmode="layer"
     id="layer1">
    <g
       id="g1455"
       transform="matrix(0.28010229,0,0,0.28010229,83.50271,111.63455)"
       style="stroke-width:3.57012439">
      <path
         style="fill:#fefefe;stroke-width:3.57012439"
         d="m -298.11417,136.35529 v -313 h 535.5 535.5 v 313 313 h -535.5 -535.5 z"
         id="path1515"
         inkscape:connector-curvature="0" />
      <path
         style="fill:#fefdfc;stroke-width:3.57012439"
         d="m -165.11417,431.16754 c -8.74418,-6.88776 -26.00363,-24.3741 -34.36054,-34.81225 -28.6888,-35.83356 -48.94883,-80.41219 -58.62776,-129 -3.06801,-15.40127 -5.95251,-36.12627 -6.10189,-43.84174 -0.0841,-4.34381 -0.14963,-4.45575 -0.97077,-1.65826 -1.22767,4.18245 -6.21767,9.92981 -10.30549,11.8696 -3.91397,1.8573 -13.24792,2.14291 -18.88355,0.57782 l -3.75,-1.04143 v -17.91781 c 0,-21.11783 -0.33002,-20.54758 11.75719,-20.3159 8.82923,0.16923 13.41326,2.26943 17.99281,8.24353 l 3.25,4.23967 0.003,-17.82774 c 0.004,-21.10309 1.16827,-35.43217 4.53597,-55.82774 5.50313,-33.32828 16.72854,-67.14214 31.99295,-96.37106 l 5.46768,-10.46972 v -72.32961 -72.32961 l 384.25,-0.0919 c 211.3375,-0.0506 388.975,-0.10386 394.75,-0.11845 5.775,-0.0146 38.9625,0.0268 73.75,0.0919 l 63.25,0.11845 V -44.489 28.66671 l 5.89986,11.59429 c 19.44744,38.21777 30.98504,77.65264 35.09414,119.95024 0.5533,5.69578 1.0447,19.64578 1.092,31 0.049,11.82296 0.4242,19.52618 0.8777,18.02789 0.4354,-1.43888 2.6601,-5.81523 4.9437,-9.72521 3.1806,-5.44597 5.2529,-7.75429 8.8582,-9.86718 5.9755,-3.50184 13.965,-3.80056 19.2425,-0.71946 l 3.4919,2.03866 0.2684,22.55413 0.2684,22.55412 -5.955,1.26374 c -7.2825,1.54546 -11.721,0.80243 -18.6856,-3.1281 -6.2777,-3.54297 -11.2491,-8.86925 -12.0593,-12.92024 -0.8612,-4.30592 -2.3346,-2.50547 -2.3525,2.87472 -0.02,6.06767 -3.2833,28.99355 -5.9401,41.73402 -7.7313,37.07616 -22.4294,73.33125 -42.8912,105.79836 -14.03622,22.27149 -35.07129,46.904 -52.0831,60.9904 l -4.43,3.6682 -393.57,-0.0339 -393.57,-0.0339 z m 825.51598,-568.50569 c 5.69795,-10.98281 -0.81426,-25.33845 -12.87165,-28.37453 l -4.74588,-1.19503 2.17216,-2.31216 c 1.19469,-1.27169 3.58004,-2.95714 5.30077,-3.74544 3.51781,-1.61158 20.79047,-2.85888 24.62862,-1.7785 1.44679,0.40726 3.52355,0.17635 4.92961,-0.54809 1.83519,-0.94555 13.51741,-1.26632 47.74999,-1.3111 l 45.3204,-0.0593 v 18.47025 18.47025 l -3.75,0.94421 c -2.0625,0.51931 -9.825,0.70514 -17.25,0.41297 -15.0033,-0.5904 -15.2081,-0.58883 -33.5,0.25609 -7.15,0.33026 -19.075,0.74338 -26.5,0.91804 -7.425,0.17466 -15.3,0.77001 -17.5,1.32299 -2.2,0.55297 -6.55288,1.03902 -9.67306,1.08011 l -5.67306,0.0747 z"
         id="path1513"
         inkscape:connector-curvature="0" />
      <path
         style="fill:#f9e9da;stroke-width:3.57012439"
         d="m -161.37173,433.07798 c -8.12809,-5.77886 -21.872,-18.9189 -31.19309,-29.82255 -36.81626,-43.06702 -59.70444,-95.34586 -68.47349,-156.40014 -10.48621,-73.00993 0.23978,-143.26829 31.35007,-205.35218 l 6.57407,-13.11926 0.0153,-71.76428 c 0.008,-39.470354 0.37048,-72.32354 0.80457,-73.00708 0.75399,-1.18727 109.63672,-1.34908 850.93012,-1.26453 l 64.25,0.007 v 73.51428 73.51428 l 6.37674,12.73572 c 19.65996,39.26515 30.66196,77.23257 34.55156,119.23572 1.3771,14.87154 1.3709,47.79439 -0.012,63.32791 -6.5028,73.0489 -36.50726,141.66844 -83.22342,190.33009 -6.15614,6.41251 -13.80384,13.83776 -16.9949,16.50055 l -5.80181,4.84145 H 235.50994 -156.76213 Z M 231.88583,169.35529 v -115 H 58.95565 -113.97453 l -48.00549,-42.75 -48.00549,-42.75 -0.0643,-36.25 -0.0643,-36.25 h 445.5 445.5 v 35.96116 35.96116 L 632.68606,11.31645 584.48628,54.35529 H 411.18606 237.88583 v 115 115 h 149.2682 149.2682 l 74.2318,-67.07306 74.2318,-67.07307 v -32.76141 c 0,-18.01878 0.29924,-76.7109 0.66497,-130.42694 l 0.66497,-97.66552 H 235.0508 -216.11417 v 129.8075 129.80749 l 49.74729,44.44251 c 27.36101,24.44337 51.99851,46.51344 54.75,49.04459 2.75149,2.53115 14.38163,12.99365 25.84476,23.25 l 20.84206,18.64791 H 83.47788 231.88583 Z"
         id="path1511"
         inkscape:connector-curvature="0" />
      <path
         style="fill:#fae1c7;stroke-width:3.57012439"
         d="m -161.61417,432.70151 c -7.80157,-5.62369 -33.30544,-31.82297 -41.22222,-42.34622 -28.36809,-37.70781 -47.99379,-84.34843 -56.17488,-133.5 -3.98953,-23.9689 -4.6029,-32.49774 -4.60271,-64 1.5e-4,-24.41649 0.38791,-33.86701 1.8259,-44.5 5.29357,-39.14258 16.07731,-74.61107 32.6993,-107.55031 l 6.97461,-13.82136 v -72.31416 -72.31417 h 457.5 457.5 v 73.97538 73.97538 l 4.95084,9.27462 c 23.69936,44.39708 37.04016,99.0571 37.04336,151.77462 0,72.92982 -19.8642,137.63262 -59.26519,193 -13.48355,18.94746 -36.85961,44.29371 -46.22901,50.1253 -2.91573,1.81477 -13.99771,1.86663 -394.5,1.84617 l -391.5,-0.021 -5,-3.6042 z m 393.5,-262.84622 v -115.5 l -172.75,-0.02446 -172.75,-0.02446 -48.25,-43.10801 -48.25,-43.108 v -35.86754 -35.86753 h 445.5 445.5 v 35.77285 35.77285 l -48.25,43.17368 -48.25,43.17368 -173.25,0.0535 -173.25,0.05344 v 115.5 115.5 h 148.97513 148.97513 l 75.0067,-67.75 75.00671,-67.75 -0.23183,-130.5 -0.23184,-130.5 -450.75,-0.25434 -450.75,-0.25434 V 18.80014 149.25368 l 70.6173,63.3008 c 38.83952,34.81545 73.07596,65.43831 76.08097,68.05081 l 5.46366,4.75 H 83.9668 231.88583 Z"
         id="path1509"
         inkscape:connector-curvature="0" />
      <path
         style="fill:#f8d4b0;stroke-width:3.57012439"
         d="m -165.40055,429.39825 c -10.34527,-8.32235 -28.14406,-27.10027 -37.40824,-39.46613 -34.1528,-45.58727 -53.49825,-97.87523 -59.9239,-161.96564 -1.95821,-19.53157 -1.3917,-61.52641 1.07396,-79.61119 5.34904,-39.23334 15.95654,-73.96633 32.90263,-107.73572 l 6.64193,-13.23572 v -72.51537 -72.51536 l 457.25,0.25108 457.25,0.25109 0.5,74.5 0.5,74.5 6.82803,13.39143 c 16.45937,32.28084 26.80277,66.20509 32.35227,106.10857 2.168,15.58895 2.4507,62.70214 0.4771,79.5 -3.9973,34.02129 -12.3269,66.07763 -24.6926,95.02856 -16.47517,38.57212 -43.93503,77.89732 -70.94126,101.59477 l -8.97645,7.87667 H 235.2187 -157.99552 Z m 398.04058,-259.79296 0.2542,-115.25 H 59.87627 -113.14168 l -27.76,-24.75 c -15.268,-13.6125 -37.08582,-33.075 -48.48405,-43.25 l -20.72405,-18.5 -0.002,-35.75111 -0.002,-35.75112 445.25,0.25112 445.25,0.25111 0.26303,34.8155 c 0.14467,19.14853 -0.0803,35.38976 -0.5,36.09162 -0.41967,0.70186 -22.27228,20.47239 -48.56136,43.9345 L 583.78918,54.35529 H 410.8375 237.88583 v 115.5 115.5 l 149.25,-0.0552 149.25,-0.0552 74.75,-67.64111 74.75,-67.64115 V 19.15896 -111.64471 h -451 -451 l 0.0694,130.75 0.0694,130.75 75.68056,67.7116 75.68057,67.7116 148.5,-0.2116 148.5,-0.2116 z"
         id="path1507"
         inkscape:connector-curvature="0" />
      <path
         style="fill:#f7c697;stroke-width:3.57012439"
         d="m -163.43542,430.78412 c -25.16853,-19.75831 -49.53912,-51.07203 -67.08539,-86.19789 -36.34768,-72.76439 -43.84799,-169.00391 -19.50144,-250.23094 5.5397,-18.48201 10.77941,-31.72982 19.77577,-50 l 7.63231,-15.5 0.5,-73 0.5,-73 h 457 457 l 0.5,74.5 0.5,74.5 5.38994,10.5 c 18.02536,35.11469 29.34176,72.91196 34.28096,114.5 1.6591,13.97043 1.6623,57.26901 0.01,72.32267 -4.5047,40.92368 -15.0159,77.72367 -31.89845,111.67733 -15.5753,31.32463 -31.93876,54.25594 -55.83808,78.25 l -16.19064,16.25 -393.37686,-6.3e-4 -393.37687,-6.3e-4 z m 396.07543,-261.17883 -0.25418,-115.75 -173.51586,-0.5 -173.51587,-0.5 -46.98413,-41.94739 c -25.84128,-23.07107 -47.31802,-42.42107 -47.72609,-43 -0.40807,-0.57894 -0.63307,-16.80261 -0.5,-36.05261 l 0.24195,-35 444.75,-0.25112 444.75,-0.25111 v 35.94301 35.94301 l -47.63673,42.5553 -47.63673,42.55529 -173.61327,0.25281 -173.61327,0.25281 -0.25418,115.75 -0.25419,115.75 149.75419,-0.0182 149.75418,-0.0182 74.62597,-67.44999 74.62597,-67.45 0.41474,-79.00043 c 0.2281,-43.45023 0.22844,-102.41455 7.5e-4,-131.03181 l -0.41398,-52.03137 H 234.76256 -216.11417 l 0.019,130.75 0.019,130.75 75.73101,67.73966 75.730999,67.73966 148.75418,0.0103 148.754181,0.0104 z"
         id="path1505"
         inkscape:connector-curvature="0" />
      <path
         style="fill:#f2bd88;stroke-width:3.57012439"
         d="m -163.26509,430.62183 c -3.49199,-2.60341 -11.08255,-9.46591 -16.8679,-15.25 -52.71341,-52.702 -83.05677,-131.3634 -83.90623,-217.51654 -0.55776,-56.56904 11.22588,-109.01665 35.14716,-156.43583 l 6.77789,-13.43584 v -72.30408 -72.30409 l 387.25,-0.26008 c 212.9875,-0.14304 418.8625,-0.14156 457.5,0.003 l 70.25,0.26337 v 73.55116 73.55117 l 7.92061,16.18546 c 16.32319,33.35585 26.08829,65.64426 31.20659,103.18547 2.9089,21.33513 3.158,60.81436 0.5207,82.5 -7.7852,64.01459 -29.8201,117.80771 -67.88005,165.7133 -7.66351,9.64597 -21.07381,23.67474 -30.04353,31.4291 l -6.77567,5.8576 H 235.45924 -156.916 l -6.34909,-4.73346 z M 232.88583,169.35529 v -116 H 59.51654 -113.85274 l -47.88072,-42.77367 -47.88071,-42.77367 v -35.47633 -35.47633 h 444.5 444.5 l 0.26246,35.59125 0.26246,35.59125 -47.49751,42.40875 -47.49751,42.40875 -173.76495,0.5 -173.76495,0.5 -0.25418,115.75 -0.25419,115.75 h 149.79316 149.79315 l 74.58506,-67.41251 74.58506,-67.41252 0.74702,-129.98711 c 0.41086,-71.49292 0.44099,-130.48229 0.067,-131.08749 -0.49315,-0.79786 -124.65076,-1.10037 -451.6211,-1.10037 H -216.11417 V 19.15146 149.94764 l 6.75,6.04116 c 3.7125,3.32263 37.7554,33.78936 75.65089,67.70382 l 68.90089,61.66267 H 84.03672 232.88583 Z"
         id="path1503"
         inkscape:connector-curvature="0" />
      <path
         style="fill:#f2b172;stroke-width:3.57012439"
         d="m -164.63897,429.27148 c -19.7495,-15.6942 -40.07053,-39.85067 -55.64966,-66.15309 -22.02456,-37.18433 -35.59505,-79.30358 -41.48645,-128.7631 -2.1243,-17.83403 -2.40747,-63.34068 -0.48847,-78.5 5.74461,-45.37998 15.15524,-77.54893 33.27226,-113.73667 l 6.87712,-13.73667 v -72.50449 -72.5045 l 387.25,-0.25883 c 212.9875,-0.14236 418.6375,-0.14028 457,0.005 l 69.75,0.26346 v 72.782137 72.78213 l 6.28715,12.45441 c 18.66475,36.97355 29.05945,71.331893 34.32415,113.454403 2.0815,16.6544 2.3541,56.19946 0.4996,72.5 -5.4303,47.73198 -17.4609,87.46442 -37.69021,124.47571 -16.27986,29.78545 -39.24565,59.17462 -60.32329,77.19531 l -7.4026,6.329 H 235.29874 -156.98315 Z m 397.5248,-259.91619 v -116 l -173.25,-0.0059 -173.25,-0.0059 -47.75,-42.62557 -47.75,-42.62557 v -35.3685 -35.36851 h 444.5 444.5 v 35.27565 35.27565 l -47.75,42.68807 -47.75,42.68808 -173.75,0.0363 -173.75,0.03625 v 116 116 h 149.90964 149.90964 l 74.34036,-67.14586 c 40.8872,-36.93023 74.66279,-67.64273 75.05687,-68.25 0.39408,-0.60728 0.72182,-59.71664 0.72832,-131.35414 l 0.0118,-130.25 H 235.36416 -216.11417 V 19.22917 150.10305 l 75.53247,67.62612 75.53247,67.62612 H 83.9183 232.88583 Z"
         id="path1501"
         inkscape:connector-curvature="0" />
      <path
         style="fill:#f4a556;stroke-width:3.57012439"
         d="m -164.64085,428.9909 c -9.63791,-7.69309 -25.85417,-24.22516 -34.42993,-35.10045 -32.6991,-41.46709 -53.96087,-93.69635 -61.4788,-151.02181 -9.55818,-72.88278 1.56365,-141.4101 33.04933,-203.63389 l 6.38608,-12.62053 v -71.62187 -71.62186 l 386.75,-0.2576 c 212.7125,-0.14168 418.1375,-0.13904 456.5,0.006 l 69.75,0.26346 v 72.999869 72.99987 l 6.87392,13.73667 c 32.55568,65.058441 42.94578,136.438051 30.52938,209.736631 -10.5811,62.46474 -40.84806,122.55344 -83.4033,165.57999 -5.775,5.83896 -12.48002,12.03463 -14.90004,13.76815 l -4.40004,3.15186 H 234.95911 -156.66754 Z M 232.64,169.60529 232.89416,53.35529 59.64,53.30546 l -173.25417,-0.04984 -47.75,-42.67845 -47.75,-42.67845 v -35.27171 -35.27172 h 444.5 444.5 l -0.0297,35.25 -0.0297,35.25 -47.95455,42.75 -47.95454,42.75 H 410.4099 236.90247 l -0.25828,115.989 c -0.21343,95.84726 -0.027,116.07774 1.07351,116.5 0.73248,0.28105 68.122,0.511 149.75449,0.511 h 148.4227 l 26.30531,-23.75 c 14.46792,-13.0625 48.44256,-43.74927 75.4992,-68.19282 l 49.1938,-44.44282 -0.25368,-131.05718 -0.25369,-131.05718 h -451.5 -451.5 l -0.25374,130.39303 c -0.20112,103.34836 0.006,130.70831 1,131.91313 0.68956,0.83606 33.20374,30.10309 72.25374,65.03785 39.05,34.93475 72.90405,65.23782 75.23123,67.34015 l 4.23122,3.82242 148.26878,-0.25329 148.26877,-0.25329 z"
         id="path1499"
         inkscape:connector-curvature="0" />
      <path
         style="fill:#ef9a48;stroke-width:3.57012439"
         d="m -165.73979,427.91482 c -17.38196,-13.90729 -38.90591,-39.32662 -52.54923,-62.05953 -27.62015,-46.02151 -41.92575,-95.50987 -44.77909,-154.90735 -2.9354,-61.10581 8.09747,-115.69223 34.00053,-168.22151 l 7.95341,-16.12885 v -71.61606 -71.61605 l 386.25,-0.25509 c 212.4375,-0.1403 417.8625,-0.13657 456.5,0.008 l 70.25,0.26337 v 73.651322 73.65132 l 3.89867,7.10358 c 17.29923,31.52002 30.00003,71.691168 35.74823,113.067038 2.5264,18.18591 2.5187,66.26377 -0.014,85 -7.2544,53.67188 -23.6149,98.402 -51.20646,140 -10.9123,16.45178 -22.62215,30.48308 -37.7635,45.25 l -13.58597,13.25 H 235.63615 -157.69049 l -8.0496,-6.44047 z m 777.37932,-209.68498 75.25369,-68.04032 -0.25369,-131.16712 -0.2537,-131.16711 h -451.5 -451.5 l -0.24377,131 -0.24376,131 76.24376,68.23127 76.24377,68.23126 300.5,-0.0238 300.5,-0.0238 75.2537,-68.04032 z m -772.68459,-207.62455 -47.98617,-42.75 -0.0415,-35.25 -0.0415,-35.25 h 444.51279 444.5128 l -0.2628,35.22678 -0.26279,35.22678 -47.88071,42.77322 -47.88072,42.77322 H 235.28276 -113.05889 Z m 49.93089,37.34894 c 0,-0.22058 -2.8125,-2.74 -6.25,-5.59872 l -6.25,-5.19768 5.91189,5.59873 c 5.66008,5.36026 6.58811,6.09243 6.58811,5.19767 z"
         id="path1497"
         inkscape:connector-curvature="0" />
      <path
         style="fill:#f19439;stroke-width:3.57012439"
         d="m -167.19982,426.49165 c -32.52058,-27.1639 -60.10909,-68.54309 -76.76419,-115.13636 -13.16509,-36.82984 -19.12875,-73.61799 -19.12875,-118 0,-57.66347 10.27493,-102.67332 34.46378,-150.97043 l 7.51481,-15.00458 v -72.01358 -72.01358 l 456.25,0.25108 456.25,0.25109 0.5,74 0.5,74 5.17153,10.07547 c 32.67157,63.6525 43.46727,135.95863 31.24447,209.26543 -11.222,67.30469 -42.484,128.08402 -88.46557,171.99394 l -11.69192,11.16516 H 235.42943 -157.78548 Z m 778.85346,-207.88636 75.12681,-67.75 0.0527,-131.75 0.0527,-131.75 h -452 -452 V 18.69562 150.03594 l 76.15861,68.15968 76.1586,68.15967 h 300.66189 300.6619 z m -772.57673,-208 -48.04061,-42.75 -0.0752,-35.25 -0.0752,-35.25 h 444 444 v 35.34173 35.34172 L 634.19821,7.94702 c -24.57819,21.94955 -46.24006,41.14577 -48.1375,42.65827 l -3.44989,2.75 H 234.86417 -112.88248 Z m 50.35902,37.83106 c -0.73475,-1.18885 -19.5501,-17.29088 -19.5501,-16.73082 0,0.5961 18.91563,17.64976 19.57681,17.64976 0.29768,0 0.28565,-0.41352 -0.0267,-0.91894 z"
         id="path1495"
         inkscape:connector-curvature="0" />
      <path
         style="fill:#f08e2f;stroke-width:3.57012439"
         d="m -160.83051,431.44582 c -16.66168,-12.06967 -40.83578,-39.38981 -54.9405,-62.09053 -23.6903,-38.12813 -38.06144,-79.41788 -44.89921,-129 -2.16319,-15.6857 -3.04267,-60.73383 -1.52398,-78.06029 3.76798,-42.98847 14.09715,-79.99406 33.11219,-118.62872 l 7.96784,-16.189 v -71.5509 -71.5509 l 386.75,-0.2601 c 212.7125,-0.14305 417.9125,-0.14149 456,0.004 l 69.25,0.26355 v 72.501832 72.50182 l 6.13915,12.23463 c 10.37885,20.6838 16.31235,35.37352 22.41705,55.49794 22.8935,75.470018 17.2129,163.423438 -15.1286,234.236678 -16.91251,37.03086 -42.93537,73.3871 -68.42519,95.59613 l -8.49759,7.40383 H 235.28828 -156.81409 Z m 772.70135,-212.84053 74.99908,-67.75 0.008,-131.7511 0.008,-131.75109 -452.25,0.25109 -452.25,0.2511 -0.25371,130.69146 -0.25371,130.69147 4.27952,4.01109 c 2.35373,2.2061 36.6679,33.04256 76.25371,68.52548 l 71.97419,64.5144 301.24296,0.0331 301.24296,0.0331 z M -161.36959,9.73378 -209.11417,-32.88774 v -34.87848 -34.87849 h 444 444 l -0.0566,35.25 -0.0566,35.25 -47.42681,42.25 -47.42681,42.25 H 235.147 -113.625 L -161.36958,9.73378 Z m 50.82041,38.72667 c -0.30417,-0.49216 -8.09323,-7.30095 -17.30901,-15.13065 -19.0122,-16.15269 -18.22933,-14.93403 2.22045,3.45647 12.31944,11.07889 16.92105,14.6392 15.08856,11.67418 z"
         id="path1493"
         inkscape:connector-curvature="0" />
      <path
         style="fill:#c87b49;stroke-width:3.57012439"
         d="m -160.27437,426.20229 c -7.5918,-5.90447 -25.19588,-23.84975 -33.20346,-33.847 -11.90679,-14.86529 -22.57404,-31.94013 -32.17385,-51.5 -22.34288,-45.52422 -32.3938,-91.22633 -32.43856,-147.5 -0.0188,-23.57303 0.9938,-37.70405 4.12011,-57.5 4.80331,-30.41479 15.96508,-65.38408 28.7269,-90 l 3.62906,-7 0.5,56.65104 0.5,56.65104 77,69.04637 77,69.04637 302.5,0.0462 302.5,0.0462 76.5,-69.10618 76.5,-69.10619 0.5,-55.63746 0.5,-55.63746 4.83203,10 c 16.92227,35.0211 27.04207,72.13831 30.76357,112.83457 1.5035,16.44069 0.6095,59.01371 -1.5679,74.66543 -6.6073,47.49567 -21.3992,89.67607 -44.49122,126.87085 -11.51681,18.55035 -23.53026,33.6505 -39.68311,49.87915 l -15.17877,15.25007 h -390.9975 -390.9975 z m 32.6602,-392.54839 c -9.9,-8.54709 -31.1625,-26.97769 -47.25,-40.95688 l -29.25,-25.41671 V -65.6822 -98.64471 h 439.5 439.5 V -65.786 -32.9273 L 628.64412,8.214 582.40241,49.35529 236.39412,49.27468 -109.61417,49.19407 Z"
         id="path1491"
         inkscape:connector-curvature="0" />
      <path
         style="fill:#d27b3a;stroke-width:3.57012439"
         d="m -156.84729,428.35401 c -0.94125,-1.09929 -2.09005,-1.99872 -2.5529,-1.99872 -1.47615,0 -22.5687,-20.54536 -28.21398,-27.48205 -1.65,-2.02746 -3.93353,-4.66091 -5.07451,-5.85212 -1.14098,-1.1912 -2.36436,-2.95333 -2.71862,-3.91583 -0.35425,-0.9625 -1.10822,-1.75 -1.67549,-1.75 -0.56726,0 -1.03138,-0.68912 -1.03138,-1.53138 0,-0.84227 -0.675,-1.79041 -1.5,-2.10699 -0.825,-0.31659 -1.5,-1.15432 -1.5,-1.86163 0,-0.70731 -0.675,-1.54504 -1.5,-1.86163 -0.825,-0.31658 -1.5,-1.26472 -1.5,-2.10699 0,-0.84226 -0.45,-1.53138 -1,-1.53138 -0.55,0 -1,-0.675 -1,-1.5 0,-0.825 -0.45,-1.5 -1,-1.5 -0.55,0 -1,-0.46882 -1,-1.04181 0,-0.573 -0.88444,-1.99115 -1.96542,-3.15145 -1.08098,-1.16029 -1.72942,-2.49148 -1.44098,-2.95818 0.28844,-0.46671 0.0479,-0.84856 -0.53458,-0.84856 -0.58246,0 -1.05902,-0.675 -1.05902,-1.5 0,-0.825 -0.44143,-1.5 -0.98095,-1.5 -0.53952,0 -1.2633,-1.125 -1.60841,-2.5 -0.3451,-1.375 -1.05523,-2.5 -1.57806,-2.5 -0.52284,0 -0.69625,-0.41157 -0.38537,-0.91459 0.31089,-0.50302 0.21923,-1.06552 -0.20368,-1.25 -1.00261,-0.43734 -12.76898,-24.1049 -12.47126,-25.08541 0.12525,-0.4125 -0.22227,-0.75 -0.77227,-0.75 -0.55,0 -0.9044,-0.3375 -0.78755,-0.75 0.11685,-0.4125 -0.31732,-1.70333 -0.96481,-2.86852 -0.6475,-1.16518 -0.8931,-2.40268 -0.54579,-2.75 0.34732,-0.34731 0.10648,-0.63148 -0.53518,-0.63148 -0.64167,0 -1.11338,-0.3375 -1.04825,-0.75 0.0651,-0.4125 0.009,-1.0875 -0.125,-1.5 -0.13388,-0.4125 -0.31562,-1.0875 -0.40385,-1.5 -0.0882,-0.4125 -0.78304,-1.875 -1.54398,-3.25 -0.76095,-1.375 -1.30751,-2.6125 -1.21457,-2.75 0.0929,-0.1375 0.11273,-0.475 0.044,-0.75 -0.0687,-0.275 -0.2375,-0.95 -0.375,-1.5 -0.1375,-0.55 -0.3625,-1.225 -0.5,-1.5 -0.1375,-0.275 -0.34396,-0.8375 -0.45879,-1.25 -0.11484,-0.4125 -0.74578,-2.04885 -1.40208,-3.63632 -0.65631,-1.58748 -1.37266,-3.83748 -1.5919,-5 -0.21923,-1.16253 -0.4883,-2.22618 -0.59792,-2.36368 -0.10962,-0.1375 -0.31181,-0.7 -0.44931,-1.25 -0.1375,-0.55 -0.34068,-1.1125 -0.45151,-1.25 -0.11083,-0.1375 -0.36578,-0.925 -0.56654,-1.75 -0.20077,-0.825 -0.64264,-2.625 -0.98195,-4 -0.33931,-1.375 -0.78118,-3.175 -0.98195,-4 -0.20076,-0.825 -0.43389,-1.5 -0.51805,-1.5 -0.0842,0 -0.31729,-0.675 -0.51805,-1.5 -0.20077,-0.825 -0.65184,-2.625 -1.0024,-4 -0.35055,-1.375 -0.80261,-3.4 -1.00458,-4.5 -0.20197,-1.1 -0.65197,-3.125 -1,-4.5 -0.69576,-2.7488 -1.0258,-4.52123 -1.95519,-10.5 -0.34199,-2.2 -0.81937,-5.125 -1.06084,-6.5 -0.65206,-3.71296 -1.55231,-10.09679 -1.90377,-13.5 -0.17041,-1.65 -0.68777,-6.6 -1.14971,-11 -1.6738,-15.94325 -0.95658,-63.49638 1.18398,-78.5 0.19617,-1.375 0.5609,-4.075 0.8105,-6 0.77288,-5.96054 1.74358,-11.73443 3.15223,-18.75 0.3037,-1.5125 0.72945,-3.65 0.94613,-4.75 0.36796,-1.86805 0.76157,-3.53949 2.0017,-8.5 0.79164,-3.16656 1.58595,-6.37273 1.98195,-8 0.20076,-0.825 0.43389,-1.5 0.51805,-1.5 0.0842,0 0.34359,-0.7875 0.57651,-1.75 0.23292,-0.9625 0.61406,-2.5375 0.84698,-3.5 0.23292,-0.9625 0.51417,-1.8625 0.625,-2 0.11083,-0.1375 0.31401,-0.7 0.45151,-1.25 0.1375,-0.55 0.3625,-1.225 0.5,-1.5 0.1375,-0.275 0.3625,-0.95 0.5,-1.5 0.1375,-0.55 0.3625,-1.225 0.5,-1.5 0.1375,-0.275 0.3625,-0.95 0.5,-1.5 0.1375,-0.55 0.3625,-1.225 0.5,-1.5 0.1375,-0.275 0.3625,-0.95 0.5,-1.5 0.1375,-0.55 0.3625,-1.225 0.5,-1.5 0.1375,-0.275 0.3625,-0.95 0.5,-1.5 0.1375,-0.55 0.3625,-1.225 0.5,-1.5 0.1375,-0.275 0.3222,-0.8375 0.41044,-1.25 0.0882,-0.4125 0.72282,-1.7625 1.41018,-3 0.68736,-1.2375 0.95382,-2.25 0.59212,-2.25 -0.3617,0 -0.0974,-0.675 0.58726,-1.5 0.68469,-0.825 0.92809,-1.5 0.54089,-1.5 -0.38721,0 0.33892,-1.6875 1.61362,-3.75 1.27469,-2.0625 2.20228,-3.86722 2.0613,-4.01048 -0.14098,-0.14326 0.40984,-1.54871 1.22405,-3.12321 0.8142,-1.57451 1.19832,-3.14479 0.85359,-3.48953 -0.34473,-0.34473 -0.0268,-0.62678 0.70655,-0.62678 0.73333,0 1.05469,-0.27864 0.71413,-0.61921 -0.34057,-0.34056 1.04693,-3.82806 3.08333,-7.75 l 3.70254,-7.13079 0.5,56.65104 0.5,56.65104 77,69.04637 77,69.04637 302.67308,0.0526 302.67307,0.0526 2.89557,-2.75 c 1.59256,-1.5125 5.94738,-5.45 9.67738,-8.75 3.72999,-3.3 8.47463,-7.575 10.54365,-9.5 5.40538,-5.02913 18.309,-16.68432 30.44564,-27.5 3.70305,-3.3 8.4152,-7.575 10.47146,-9.5 2.05626,-1.925 6.18699,-5.69815 9.1794,-8.38478 2.99241,-2.68663 7.72397,-6.96163 10.51456,-9.5 2.7906,-2.53837 7.33024,-6.64022 10.0881,-9.11522 6.97338,-6.25817 14.92389,-13.43798 20.9119,-18.88478 2.7906,-2.53837 7.5156,-6.81516 10.5,-9.50398 2.98441,-2.68882 7.47972,-6.73882 9.98958,-9 2.50987,-2.26118 7.56523,-6.85711 11.23413,-10.21317 l 6.67074,-6.10193 0.0485,-55.14807 c 0.0266,-30.33146 0.27477,-55.14809 0.55138,-55.14809 0.27661,0 1.41671,2.1375 2.53355,4.75 1.11684,2.6125 3.40267,7.675 5.07962,11.25 5.39109,11.493 7.09599,15.87802 12.24669,31.5 5.6284,17.07048 7.3612,22.95771 8.5359,29 0.5346,2.75 1.2196,6.125 1.5222,7.5 0.3026,1.375 0.7932,4.075 1.0903,6 0.2971,1.925 0.7164,4.175 0.9317,5 0.5619,2.15239 1.4738,8.8407 2.9995,22 1.3058,11.26339 1.4502,64.26106 0.1907,70 -0.3018,1.375 -0.8232,5.03578 -1.1588,8.13506 -0.3355,3.09928 -0.7661,6.47428 -0.9569,7.5 -0.1907,1.02572 -0.6568,3.88994 -1.0358,6.36494 -1.2631,8.25025 -4.2549,22.09619 -6.9144,32 -4.4832,16.69468 -5.8165,20.74265 -10.8694,33 -0.5668,1.375 -1.3602,3.4 -1.763,4.5 -3.94745,10.77938 -18.75935,39.76606 -23.59919,46.18328 -1.32044,1.7508 -2.40081,3.6633 -2.40081,4.25 0,0.5867 -0.45,1.06672 -1,1.06672 -0.55,0 -1,0.675 -1,1.5 0,0.825 -0.45,1.5 -1,1.5 -0.55,0 -1,0.675 -1,1.5 0,0.825 -0.41968,1.5 -0.93261,1.5 -0.51294,0 -1.18523,0.7875 -1.49398,1.75 -0.30875,0.9625 -1.57657,2.95106 -2.81738,4.41903 -1.24082,1.46797 -3.02423,3.71797 -3.96314,5 -3.3524,4.57751 -5.34211,7.10057 -8.79289,11.14982 -3.54212,4.15644 -23.53464,24.29149 -28.22862,28.42987 l -2.55062,2.24873 H 235.48533 c -389.30068,0 -390.62704,-0.007 -392.33262,-1.99873 z m 46.56645,-379.87672 c -0.27141,-0.7149 -24.06235,-21.47552 -36.33333,-31.70545 -1.65,-1.37555 -15.2625,-13.07805 -30.25,-26.00554 l -27.25,-23.50453 v -32.95324 -32.95324 l 439.25,-1.5e-5 439.25,-1.4e-5 -0.21362,33.250019 -0.21362,33.25001 -45.77625,40.75 -45.77625,40.75 H 236.2293 c -197.79539,0 -346.31968,-0.37633 -346.51014,-0.878 z"
         id="path1489"
         inkscape:connector-curvature="0" />
      <path
         style="fill:#ae7248;stroke-width:3.57012439"
         d="m 40.52447,429.6053 -195.86136,-0.25503 -6.1831,-4.92004 c -8.86496,-7.05406 -25.8122,-24.94525 -34.88906,-36.83234 -30.18876,-39.53536 -50.00046,-87.93586 -57.60993,-140.7426 -6.52049,-45.24959 -5.04818,-88.44414 4.47693,-131.34453 3.59536,-16.19324 13.02806,-43.99202 20.58164,-60.65547 l 6.34624,-14 0.25845,55.2178 0.25845,55.21781 77.65165,69.53219 77.65164,69.5322 303.0899,-0.0618 303.08991,-0.0618 76.25,-69.02876 76.25,-69.02876 V 97.76471 c 0,-30.91244 0.38237,-54.40942 0.88542,-54.40942 1.10461,0 11.12198,22.09068 16.14618,35.60622 20.8149,55.99328 25.5664,120.85332 13.3619,182.39378 -12.3717,62.38313 -46.25811,124.51262 -87.86996,161.1061 l -8.97645,7.8939 -194.52355,-0.24748 C 323.92142,429.9717 148.24822,429.74557 40.52447,429.6053 Z M -148.16601,15.19119 c -21.14649,-18.24025 -42.39169,-36.56027 -47.21155,-40.71116 l -8.7634,-7.54708 0.2634,-32.53883 0.26339,-32.53883 438.76348,-0.25113 438.76348,-0.25113 -0.26348,33.23233 -0.26348,33.23233 -45,40.21197 -45,40.21197 -346.55184,0.0568 -346.55183,0.05686 z"
         id="path1487"
         inkscape:connector-curvature="0" />
      <path
         style="fill:#926d50;stroke-width:3.57012439"
         d="m -157.72931,427.16371 c -12.45083,-9.45869 -29.82161,-27.81539 -42.19328,-44.58807 -48.09319,-65.20152 -67.75461,-157.22375 -53.03463,-248.22035 4.63102,-28.62828 15.47879,-62.79287 27.14753,-85.5 l 3.59715,-7 0.0492,54.71024 0.0492,54.71023 77.65297,69.53339 77.652974,69.53338 151.09703,0.25638 c 83.103376,0.14101 219.592366,0.0314 303.308886,-0.24362 l 152.21185,-0.5 74.128,-67 c 40.7704,-36.85 75.10007,-67.76159 76.28815,-68.69242 2.15509,-1.68846 2.16132,-1.8202 2.66015,-56.19933 l 0.5,-54.5069 5.40836,11.69932 c 14.44424,31.24571 24.09534,65.61835 28.27434,100.69933 1.6468,13.82465 1.6491,60.3526 0,74 -5.1934,43.07388 -15.3072,77.72073 -32.69409,112 -14.49472,28.57726 -29.98792,50.0755 -52.06862,72.25 l -15.18189,15.25 H 236.13974 -154.84445 Z M -127.78537,32.5843 c -9.99415,-8.65096 -31.14415,-26.85982 -47,-40.46414 l -28.8288,-24.73514 0.27642,-33.01486 0.27643,-33.01487 h 438.48705 438.48706 l -0.26348,33.2312 -0.26348,33.2312 -45,40.21197 -45,40.21197 -346.5,0.0358 -346.5,0.0358 -18.1712,-15.72901 z"
         id="path1485"
         inkscape:connector-curvature="0" />
      <path
         style="fill:#bc622d;stroke-width:3.57012439"
         d="m -157.72931,427.16371 c -12.45083,-9.45869 -29.82161,-27.81539 -42.19328,-44.58807 -48.09319,-65.20152 -67.75461,-157.22375 -53.03463,-248.22035 4.63102,-28.62828 15.47879,-62.79287 27.14753,-85.5 l 3.59715,-7 0.0492,54.71024 0.0492,54.71023 77.4747,69.37376 77.474704,69.37375 226.691476,0.66601 c 124.68032,0.36631 261.01194,0.66601 302.95917,0.66601 h 76.26768 l 77.05758,-69.60732 77.05758,-69.60731 0.25856,-54.13858 0.25856,-54.13858 6.66354,15.02826 c 19.57446,44.1462 28.12736,84.91247 28.10616,133.96353 -0.019,42.61258 -6.0218,77.85543 -19.7605,116.00566 -15.39789,42.75779 -44.45842,86.97249 -74.37975,113.16651 l -8.37054,7.32783 h -390.2446 -390.24459 z m 29.92887,-394.61902 c -10.00245,-8.62917 -31.15245,-26.82021 -47,-40.42453 l -28.81373,-24.73514 0.27642,-33.01486 0.27643,-33.01487 h 438.48705 438.48706 l -0.26348,33.2312 -0.26348,33.2312 -45,40.21197 -45,40.21197 -346.5,-0.004 -346.5,-0.004 -18.18627,-15.68941 z"
         id="path1483"
         inkscape:connector-curvature="0" />
      <path
         style="fill:#b3592c;stroke-width:3.57012439"
         d="m -157.72931,427.16371 c -12.45083,-9.45869 -29.82161,-27.81539 -42.19328,-44.58807 -48.09319,-65.20152 -67.75461,-157.22375 -53.03463,-248.22035 4.63102,-28.62828 15.47879,-62.79287 27.14753,-85.5 l 3.59715,-7 0.0645,54.5 c 0.0355,29.975 0.39511,54.97463 0.79919,55.55473 0.89433,1.28392 3.74348,3.84993 87.99554,79.25067 l 67.26087,60.1946 h 302.42299 302.423 l 77.05758,-69.60732 77.05758,-69.60731 0.25856,-54.13858 0.25856,-54.13858 6.66354,15.02826 c 19.57446,44.1462 28.12736,84.91247 28.10616,133.96353 -0.019,42.61258 -6.0218,77.85543 -19.7605,116.00566 -15.39789,42.75779 -44.45842,86.97249 -74.37975,113.16651 l -8.37054,7.32783 h -390.2446 -390.24459 z m 26.61514,-397.5182 c -11.825,-10.21948 -32.8625,-28.43559 -46.75,-40.48026 l -25.25,-21.89938 v -32.95642 -32.956422 l 438.25,0.251131 438.25,0.251131 0.26345,32.58294 0.26345,32.58294 L 628.2237,7.68823 582.53467,48.35529 236.46025,48.29083 -109.61417,48.22637 Z"
         id="path1481"
         inkscape:connector-curvature="0" />
      <path
         style="fill:#9c5041;stroke-width:3.57012439"
         d="m -157.72931,427.16371 c -12.45083,-9.45869 -29.82161,-27.81539 -42.19328,-44.58807 -48.09319,-65.20152 -67.75461,-157.22375 -53.03463,-248.22035 4.63102,-28.62828 15.47879,-62.79287 27.14753,-85.5 l 3.59715,-7 0.0492,55.10269 0.0492,55.10269 77.75,69.63416 77.750004,69.63417 302.683856,0.0131 302.68386,0.0131 77.05758,-69.60732 77.05758,-69.60731 0.25856,-54.13858 0.25856,-54.13858 6.66354,15.02826 c 19.57446,44.1462 28.12736,84.91247 28.10616,133.96353 -0.019,42.61258 -6.0218,77.85543 -19.7605,116.00566 -15.39789,42.75779 -44.45842,86.97249 -74.37975,113.16651 l -8.37053,7.32792 h -390.2446 -390.24459 z m 41.06324,-385.10872 c -3.87855,-3.40984 -24.91605,-21.70558 -46.75,-40.65721 l -39.6981,-34.45751 v -32.29249 -32.29249 h 438.5 438.5 l -0.0282,32.25 -0.0282,32.25 -41.58127,37 c -22.8697,20.35 -43.60602,38.6875 -46.08072,40.75 l -4.49938,3.75 -345.64111,-0.0503 -345.64112,-0.0503 z"
         id="path1479"
         inkscape:connector-curvature="0" />
      <path
         style="fill:#964433;stroke-width:3.57012439"
         d="m -40.02727,428.60107 -115.41309,-0.25422 -5.3273,-4.10998 c -7.87866,-6.07834 -27.81943,-27.10859 -35.96252,-37.92737 -40.222,-53.43827 -60.38421,-117.51243 -60.55954,-192.45421 -0.0755,-32.27963 2.73249,-56.50444 9.83084,-84.81083 5.23678,-20.88295 15.27482,-48.28967 23.14377,-63.18917 l 2.11255,-4 0.0442,55.10269 0.0442,55.10269 77.75,69.63416 77.749998,69.63417 302.683862,0.0131 302.68386,0.0131 77.05758,-69.60732 77.05758,-69.60731 0.25856,-54.13858 0.25856,-54.13858 6.66354,15.02826 c 19.57446,44.1462 28.12736,84.91247 28.10616,133.96353 -0.019,42.61258 -6.0218,77.85543 -19.7605,116.00566 -15.42031,42.82012 -44.35194,86.81588 -74.50921,113.30484 l -8.5,7.46606 -275,-0.38823 C 199.13583,429.03 23.44994,428.74089 -40.02727,428.60107 Z M -137.2462,24.0345 c -14.64761,-12.74856 -35.46011,-30.80417 -46.25,-40.12357 l -19.61797,-16.94436 v -32.30564 -32.30564 h 438.5 438.5 l -0.0271,32.25 -0.0271,32.25 -45.22287,40.23368 -45.22286,40.23369 -347,-0.0545 -347,-0.0545 -26.63203,-23.17922 z"
         id="path1477"
         inkscape:connector-curvature="0" />
      <path
         style="fill:#45516a;stroke-width:3.57012439"
         d="m 39.99407,428.6053 -195.39176,-0.25505 -6.70116,-5.48243 c -3.68564,-3.01534 -10.4973,-9.4267 -15.13701,-14.24748 -38.26199,-39.75513 -64.31117,-92.77572 -74.80832,-152.26505 -6.84372,-38.78462 -6.8377,-89.80778 0.0148,-125.86292 5.48111,-28.83928 16.41116,-62.25513 26.70281,-81.63708 l 2.12397,-4 0.0442,53.05887 c 0.0341,40.89657 0.33072,53.41532 1.29419,54.61392 0.6875,0.85528 35.76822,32.44129 77.95717,70.19113 l 76.70716,68.63608 h 302.9767 302.97669 l 77.05758,-69.60732 77.05758,-69.60731 0.25856,-54.13858 0.25856,-54.13858 6.66354,15.02826 c 19.57446,44.1462 28.12736,84.91247 28.10616,133.96353 -0.019,42.61258 -6.0218,77.85543 -19.7605,116.00566 -15.39789,42.75779 -44.45842,86.97249 -74.37975,113.16651 l -8.37054,7.32783 -195.12946,-0.24747 C 323.19408,428.97171 147.45954,428.74557 39.99407,428.6053 Z M -138.33696,22.60529 c -15.6692,-13.6125 -36.62877,-31.725 -46.57684,-40.25 l -18.08739,-15.5 -0.0565,-32.25 -0.0565,-32.25 h 438 438 v 32.34273 32.34274 L 627.7769,7.19802 582.66796,47.35529 H 236.41022 -109.84752 Z"
         id="path1475"
         inkscape:connector-curvature="0" />
      <path
         style="fill:#375273;stroke-width:3.57012439"
         d="m 39.99407,428.60277 -195.39176,-0.25252 -6.70116,-5.48243 c -3.68564,-3.01534 -10.4973,-9.4267 -15.13701,-14.24748 -38.26199,-39.75513 -64.31117,-92.77572 -74.80832,-152.26505 -6.84372,-38.78462 -6.8377,-89.80778 0.0148,-125.86292 5.48111,-28.83928 16.41116,-62.25513 26.70281,-81.63708 l 2.12397,-4 0.0442,53.05887 c 0.0341,40.89657 0.33072,53.41532 1.29419,54.61392 0.6875,0.85528 35.69364,32.37446 77.79142,70.04262 l 76.541414,68.48755 302.653486,0.73942 c 252.38728,0.61661 302.93702,0.51671 304.36068,-0.60148 0.93895,-0.7375 3.77745,-3.4784 6.30777,-6.0909 2.53031,-2.6125 5.02219,-4.75 5.53749,-4.75 0.51531,0 3.07013,-2.1375 5.67738,-4.75 2.60725,-2.6125 7.01632,-6.775 9.79794,-9.25 2.78161,-2.475 7.16051,-6.6375 9.73088,-9.25 2.57038,-2.6125 5.13631,-4.75 5.70207,-4.75 0.56576,0 3.16186,-2.1375 5.76911,-4.75 2.60725,-2.6125 7.01632,-6.775 9.79794,-9.25 2.78161,-2.475 7.16051,-6.6375 9.73088,-9.25 2.57038,-2.6125 5.13631,-4.75 5.70207,-4.75 0.56576,0 3.16186,-2.1375 5.76911,-4.75 2.60725,-2.6125 7.01632,-6.775 9.79794,-9.25 2.78161,-2.475 7.16051,-6.6375 9.73088,-9.25 2.57038,-2.6125 5.13631,-4.75 5.70207,-4.75 0.56576,0 3.16186,-2.1375 5.76911,-4.75 2.60725,-2.6125 7.01632,-6.775 9.79794,-9.25 2.78161,-2.475 7.16051,-6.6375 9.73088,-9.25 2.57038,-2.6125 5.09901,-4.75 5.61919,-4.75 0.52018,0 3.26026,-2.2933 6.08906,-5.09622 2.82881,-2.80292 6.6023,-6.51542 8.38554,-8.25 l 3.24225,-3.15378 0.008,-52.75 c 0.005,-36.45489 0.33489,-52.75 1.06677,-52.75 0.58246,0 0.7809,0.45 0.44098,1 -0.33992,0.55 -0.11492,1 0.5,1 0.61492,0 0.83992,0.45 0.5,1 -0.33992,0.55 -0.0665,1 0.60765,1 0.67413,0 0.96243,0.26326 0.64067,0.58501 -0.83647,0.83648 1.25799,6.41499 2.40852,6.41499 0.52866,0 0.68308,0.45 0.34316,1 -0.33992,0.55 -0.11492,1 0.5,1 0.61492,0 0.83992,0.45 0.5,1 -0.33992,0.55 -0.23724,1 0.22818,1 0.46542,0 0.92198,1.00584 1.01458,2.23519 0.0926,1.22935 0.64114,2.39279 1.21904,2.58541 0.5779,0.19262 0.7963,0.76179 0.4854,1.26481 -0.3109,0.50302 -0.1028,0.91459 0.4624,0.91459 0.5652,0 0.7686,0.675 0.452,1.5 -0.3166,0.825 -0.051,1.5 0.5904,1.5 0.6413,0 0.8879,0.45 0.548,1 -0.3399,0.55 -0.1556,1 0.4096,1 0.5652,0 0.7686,0.675 0.452,1.5 -0.3166,0.825 -0.092,1.5 0.5,1.5 0.5916,0 0.8166,0.675 0.5,1.5 -0.3166,0.825 -0.051,1.5 0.5904,1.5 0.6413,0 0.8879,0.45 0.548,1 -0.3399,0.55 -0.1556,1 0.4096,1 0.5652,0 0.7686,0.675 0.452,1.5 -0.3166,0.825 -0.092,1.5 0.5,1.5 0.5916,0 0.8166,0.675 0.5,1.5 -0.3166,0.825 -0.092,1.5 0.5,1.5 0.5916,0 0.8166,0.675 0.5,1.5 -0.3166,0.825 -0.092,1.5 0.5,1.5 0.5916,0 0.8166,0.675 0.5,1.5 -0.3166,0.825 -0.092,1.5 0.5,1.5 0.5916,0 0.8166,0.675 0.5,1.5 -0.3166,0.825 -0.092,1.5 0.5,1.5 0.5916,0 0.8341,0.62948 0.5388,1.39885 -0.2952,0.76937 -0.076,1.68378 0.4878,2.03202 0.5634,0.34825 0.771,1.29377 0.4611,2.10116 -0.3098,0.80738 -0.017,1.46797 0.6507,1.46797 0.6677,0 0.9605,0.66059 0.6507,1.46797 -0.3099,0.80739 -0.1527,1.7218 0.3493,2.03203 0.502,0.31023 0.6592,1.22464 0.3493,2.03203 -0.3098,0.80738 -0.035,1.46797 0.6111,1.46797 0.7021,0 0.9298,0.77045 0.5663,1.91584 -0.3344,1.05372 -0.1324,2.20981 0.4489,2.5691 0.5814,0.35929 0.7859,1.09187 0.4546,1.62796 -0.3313,0.53609 -0.075,1.61029 0.5698,2.3871 0.6447,0.77681 0.9011,1.85101 0.5698,2.3871 -0.3313,0.53609 -0.1268,1.26867 0.4546,1.62796 0.5813,0.35929 0.7953,1.47751 0.4756,2.48494 -0.3197,1.00743 -0.077,2.14365 0.5403,2.52494 0.6253,0.38639 0.8561,1.75154 0.5217,3.08415 -0.36,1.43439 -0.1606,2.39091 0.4984,2.39091 0.6923,0 0.8626,1.07408 0.4605,2.9048 -0.3856,1.75569 -0.1872,3.18341 0.5016,3.60909 0.6303,0.38958 0.8783,1.74532 0.5549,3.03392 -0.3216,1.28129 -0.1353,2.60737 0.4139,2.94683 0.5493,0.33947 1.0106,2.05455 1.025,3.81129 0.014,1.75674 0.2749,5.44407 0.5786,8.19407 2.1795,19.73168 2.1481,52.70921 -0.069,73 -7.1486,65.41346 -31.67767,123.29058 -72.30734,170.61152 -8.46431,9.85829 -22.83447,23.886 -27.02384,26.37983 -1.7351,1.03287 -187.66515,1.27233 -587.086176,0.75613 z M -138.33696,22.60529 c -15.6692,-13.6125 -36.62877,-31.725 -46.57684,-40.25 l -18.08739,-15.5 -0.0565,-32.25 -0.0565,-32.25 h 438 438 v 32.34273 32.34274 L 627.7769,7.19802 582.66796,47.35529 H 236.41022 -109.84752 Z"
         id="path1473"
         inkscape:connector-curvature="0" />
      <path
         style="fill:#384f70;stroke-width:3.57012439"
         d="m 39.99407,428.6053 -195.39176,-0.25505 -6.70116,-5.48243 c -3.68564,-3.01534 -10.4973,-9.4267 -15.13701,-14.24748 -38.26199,-39.75513 -64.31117,-92.77572 -74.80832,-152.26505 -6.84372,-38.78462 -6.8377,-89.80778 0.0148,-125.86292 5.48111,-28.83928 16.41116,-62.25513 26.70281,-81.63708 l 2.12397,-4 0.0442,53.05887 c 0.0341,40.89657 0.33072,53.41532 1.29419,54.61392 0.6875,0.85528 35.76822,32.44129 77.95717,70.19113 l 76.70716,68.63608 H 84.343 235.88583 v 69 c 0,37.95 -0.1125,68.88864 -0.25,68.75253 -0.1375,-0.13611 -88.17629,-0.36225 -195.64176,-0.50252 z m 338.9221,-0.24194 -89.46965,-0.50807 16.32218,-17.75 c 8.9772,-9.7625 16.54408,-17.75 16.81529,-17.75 0.2712,0 1.73494,0.88427 3.25274,1.96504 3.19422,2.27448 10.15966,3.63528 12.7608,2.49301 0.98357,-0.43192 2.1258,-0.88043 2.5383,-0.99668 0.4125,-0.11626 0.8625,-0.32867 1,-0.47205 0.1375,-0.14337 2.725,-0.37778 5.75,-0.52092 7.351,-0.34783 7.21323,-0.31437 6.4406,-1.56452 -0.3726,-0.60286 -1.89501,-0.91742 -3.38314,-0.69901 -2.83924,0.41672 -5.5924,-1.5303 -4.54966,-3.21749 0.33563,-0.54306 0.13368,-0.98738 -0.44878,-0.98738 -0.58246,0 -1.05902,0.41108 -1.05902,0.91352 0,1.68242 -5.49472,-0.52995 -5.84613,-2.35387 -0.21289,-1.10492 0.0758,-1.53572 0.75,-1.11906 0.60287,0.37259 1.09613,0.20089 1.09613,-0.38157 0,-0.58246 0.85186,-1.05902 1.89301,-1.05902 1.04116,0 2.13249,-0.62407 2.42518,-1.38682 0.36274,-0.94526 -0.0333,-1.23893 -1.24393,-0.92235 -0.97686,0.25546 -2.46462,-0.22405 -3.30614,-1.06556 -0.84151,-0.84152 -1.8086,-1.25146 -2.14907,-0.91098 -0.34048,0.34047 -0.61905,0.094 -0.61905,-0.54762 0,-0.64167 -1.125,-1.16667 -2.5,-1.16667 -1.52942,0 -2.5,-0.56897 -2.5,-1.46552 0,-0.80604 -1.29784,-2.7932 -2.88409,-4.41591 -2.12244,-2.17122 -3.17879,-2.65569 -4,-1.83448 -0.82121,0.82121 -1.41592,0.8159 -2.25194,-0.0201 -0.84804,-0.84804 -0.73687,-2.3564 0.43852,-5.95 0.866,-2.64768 1.67818,-7.37562 1.80483,-10.50653 0.30011,-7.41863 2.67761,-10.35272 9.17882,-11.32764 2.59262,-0.38879 4.71386,-1.10579 4.71386,-1.59334 0,-1.39304 2.99473,-1.0354 3.0442,0.36354 0.0243,0.6875 0.92065,-0.40942 1.99188,-2.43761 1.07122,-2.02818 2.87162,-4.33476 4.00087,-5.12572 1.7969,-1.2586 1.85012,-1.51603 0.42633,-2.06239 -0.89477,-0.34337 -3.86661,-0.6243 -6.60408,-0.6243 -3.31222,0 -4.75373,-0.36163 -4.30912,-1.08103 0.36746,-0.59456 1.66966,-0.82965 2.89378,-0.52242 1.22413,0.30724 3.76253,0.0745 5.64091,-0.51715 1.87838,-0.59167 4.82996,-1.0207 6.55907,-0.9534 1.72912,0.0673 5.32912,-0.62775 8,-1.54454 2.67089,-0.91679 6.30805,-1.78947 8.08259,-1.93929 1.77453,-0.14983 4.59011,-1.24344 6.25683,-2.43025 1.70537,-1.21433 5.32296,-2.41478 8.27357,-2.74548 l 5.24317,-0.58764 12,-13.27666 12,-13.27666 62.29221,-0.0627 c 48.22985,-0.0486 62.65563,-0.34493 63.90209,-1.31274 0.88544,-0.6875 3.68015,-3.3875 6.21047,-6 2.53031,-2.6125 5.02219,-4.75 5.53749,-4.75 0.51531,0 3.07013,-2.1375 5.67738,-4.75 2.60725,-2.6125 7.01632,-6.775 9.79794,-9.25 2.78161,-2.475 7.16051,-6.6375 9.73088,-9.25 2.57038,-2.6125 5.13631,-4.75 5.70207,-4.75 0.56576,0 3.16186,-2.1375 5.76911,-4.75 2.60725,-2.6125 7.01632,-6.775 9.79794,-9.25 2.78161,-2.475 7.16051,-6.6375 9.73088,-9.25 2.57038,-2.6125 5.13631,-4.75 5.70207,-4.75 0.56576,0 3.16186,-2.1375 5.76911,-4.75 2.60725,-2.6125 7.01632,-6.775 9.79794,-9.25 2.78161,-2.475 7.16051,-6.6375 9.73088,-9.25 2.57038,-2.6125 5.13631,-4.75 5.70207,-4.75 0.56576,0 3.16186,-2.1375 5.76911,-4.75 2.60725,-2.6125 7.01632,-6.775 9.79794,-9.25 2.78161,-2.475 7.16051,-6.6375 9.73088,-9.25 2.57038,-2.6125 5.09901,-4.75 5.61919,-4.75 0.52018,0 3.26026,-2.2933 6.08906,-5.09622 2.82881,-2.80292 6.6023,-6.51542 8.38554,-8.25 l 3.24225,-3.15378 0.008,-52.75 c 0.005,-36.45489 0.33489,-52.75 1.06677,-52.75 0.58246,0 0.7809,0.45 0.44098,1 -0.33992,0.55 -0.11492,1 0.5,1 0.61492,0 0.83992,0.45 0.5,1 -0.33992,0.55 -0.0665,1 0.60765,1 0.67413,0 0.96243,0.26326 0.64067,0.58501 -0.83647,0.83648 1.25799,6.41499 2.40852,6.41499 0.52866,0 0.68308,0.45 0.34316,1 -0.33992,0.55 -0.11492,1 0.5,1 0.61492,0 0.83992,0.45 0.5,1 -0.33992,0.55 -0.23724,1 0.22818,1 0.46542,0 0.92198,1.00584 1.01458,2.23519 0.0926,1.22935 0.64114,2.39279 1.21904,2.58541 0.5779,0.19262 0.7963,0.76179 0.4854,1.26481 -0.3109,0.50302 -0.1028,0.91459 0.4624,0.91459 0.5652,0 0.7686,0.675 0.452,1.5 -0.3166,0.825 -0.051,1.5 0.5904,1.5 0.6413,0 0.8879,0.45 0.548,1 -0.3399,0.55 -0.1556,1 0.4096,1 0.5652,0 0.7686,0.675 0.452,1.5 -0.3166,0.825 -0.092,1.5 0.5,1.5 0.5916,0 0.8166,0.675 0.5,1.5 -0.3166,0.825 -0.051,1.5 0.5904,1.5 0.6413,0 0.8879,0.45 0.548,1 -0.3399,0.55 -0.1556,1 0.4096,1 0.5652,0 0.7686,0.675 0.452,1.5 -0.3166,0.825 -0.092,1.5 0.5,1.5 0.5916,0 0.8166,0.675 0.5,1.5 -0.3166,0.825 -0.092,1.5 0.5,1.5 0.5916,0 0.8166,0.675 0.5,1.5 -0.3166,0.825 -0.092,1.5 0.5,1.5 0.5916,0 0.8166,0.675 0.5,1.5 -0.3166,0.825 -0.092,1.5 0.5,1.5 0.5916,0 0.8166,0.675 0.5,1.5 -0.3166,0.825 -0.092,1.5 0.5,1.5 0.5916,0 0.8341,0.62948 0.5388,1.39885 -0.2952,0.76937 -0.076,1.68378 0.4878,2.03202 0.5634,0.34825 0.771,1.29377 0.4611,2.10116 -0.3098,0.80738 -0.017,1.46797 0.6507,1.46797 0.6677,0 0.9605,0.66059 0.6507,1.46797 -0.3099,0.80739 -0.1527,1.7218 0.3493,2.03203 0.502,0.31023 0.6592,1.22464 0.3493,2.03203 -0.3098,0.80738 -0.035,1.46797 0.6111,1.46797 0.7021,0 0.9298,0.77045 0.5663,1.91584 -0.3344,1.05372 -0.1324,2.20981 0.4489,2.5691 0.5814,0.35929 0.7859,1.09187 0.4546,1.62796 -0.3313,0.53609 -0.075,1.61029 0.5698,2.3871 0.6447,0.77681 0.9011,1.85101 0.5698,2.3871 -0.3313,0.53609 -0.1268,1.26867 0.4546,1.62796 0.5813,0.35929 0.7953,1.47751 0.4756,2.48494 -0.3197,1.00743 -0.077,2.14365 0.5403,2.52494 0.6253,0.38639 0.8561,1.75154 0.5217,3.08415 -0.36,1.43439 -0.1606,2.39091 0.4984,2.39091 0.6923,0 0.8626,1.07408 0.4605,2.9048 -0.3856,1.75569 -0.1872,3.18341 0.5016,3.60909 0.6303,0.38958 0.8783,1.74532 0.5549,3.03392 -0.3216,1.28129 -0.1353,2.60737 0.4139,2.94683 0.5493,0.33947 1.0106,2.05455 1.025,3.81129 0.014,1.75674 0.2749,5.44407 0.5786,8.19407 2.1795,19.73168 2.1481,52.70921 -0.069,73 -6.0138,55.02967 -24.96552,106.32674 -54.78239,148.28109 -12.19652,17.16132 -25.33017,32.13766 -37.61376,42.89108 l -8.37109,7.32779 -78.62946,-0.24193 c -43.2462,-0.13307 -118.8908,-0.47057 -168.09911,-0.75 z m -59.03034,-78.64077 c 0,-1.35885 4.40331,-4.36399 5.21096,-3.55634 1.48788,1.48788 -0.32918,4.18904 -2.81795,4.18904 -1.31615,0 -2.39301,-0.28472 -2.39301,-0.6327 z M -138.33696,22.60529 c -15.6692,-13.6125 -36.62877,-31.725 -46.57684,-40.25 l -18.08739,-15.5 -0.0565,-32.25 -0.0565,-32.25 h 438 438 v 32.34273 32.34274 L 627.7769,7.19802 582.66796,47.35529 H 236.41022 -109.84752 Z"
         id="path1471"
         inkscape:connector-curvature="0" />
      <path
         style="fill:#504759;stroke-width:3.57012439"
         d="m 39.99407,428.6053 -195.39176,-0.25505 -6.70116,-5.48243 c -3.68564,-3.01534 -10.4973,-9.4267 -15.13701,-14.24748 -38.26199,-39.75513 -64.31117,-92.77572 -74.80832,-152.26505 -6.84372,-38.78462 -6.8377,-89.80778 0.0148,-125.86292 5.48111,-28.83928 16.41116,-62.25513 26.70281,-81.63708 l 2.12397,-4 0.0442,53.05887 c 0.0341,40.89657 0.33072,53.41532 1.29419,54.61392 0.6875,0.85528 35.76822,32.44129 77.95717,70.19113 l 76.70716,68.63608 H 84.343 235.88583 v 69 c 0,37.95 -0.1125,68.88864 -0.25,68.75253 -0.1375,-0.13611 -88.17629,-0.36225 -195.64176,-0.50252 z m 367.52409,-0.23838 -60.86766,-0.51163 12.77091,-13.82276 12.77091,-13.82276 4.59676,0.5915 c 2.52821,0.32533 5.27175,0.13996 6.09675,-0.41192 1.21317,-0.81156 1.04634,-1.00636 -0.87244,-1.01875 -1.87065,-0.0121 -2.13687,-0.29916 -1.25868,-1.35732 1.5323,-1.8463 0.3449,-2.73131 -2.76734,-2.06258 l -2.60154,0.559 2.5,-1.35674 c 1.375,-0.7462 2.51204,-2.01845 2.52675,-2.8272 0.0167,-0.91846 0.86135,-1.38105 2.25,-1.23226 1.84588,0.19778 2.22325,-0.25898 2.22325,-2.69098 0,-1.61106 0.45734,-3.21185 1.01631,-3.55731 0.55897,-0.34546 0.78903,-0.99586 0.51125,-1.44533 -0.44812,-0.72508 0.90399,-1.37124 3.97244,-1.8984 2.59969,-0.44662 0.83881,4.35057 -3.07517,8.37776 -2.3686,2.43711 -3.99566,4.58292 -3.61569,4.76845 1.43355,0.69997 3.68258,0.074 3.48055,-0.96879 -0.11567,-0.59701 0.67183,-1.8838 1.75,-2.85953 1.07817,-0.97573 1.96031,-2.40964 1.96031,-3.18646 0,-0.91322 0.64631,-1.20727 1.82872,-0.83198 1.55198,0.49258 1.7618,0.12445 1.3865,-2.43261 -0.29107,-1.98317 -0.0139,-3.01303 0.81104,-3.01303 0.68929,0 1.81607,-0.76969 2.50395,-1.71043 1.05595,-1.4441 1.65932,-1.52425 3.87497,-0.51473 2.20345,1.00396 2.91608,0.91744 4.44397,-0.53957 1.00083,-0.9544 2.82956,-2.32366 4.06384,-3.04281 2.02713,-1.1811 2.30362,-1.08439 2.85911,1 l 0.61496,2.30754 0.645,-2.5 c 0.35474,-1.375 1.15422,-2.39198 1.77661,-2.25995 1.81415,0.38483 3.37524,-3.5861 2.87349,-7.3093 -0.61785,-4.58475 0.60512,-4.33769 2.81784,0.56925 1.04152,2.30967 2.49745,4 3.44531,4 1.35158,0 1.6339,-1.1038 1.59813,-6.24834 -0.0239,-3.43659 -0.49344,-6.28796 -1.04344,-6.33637 -2.03735,-0.17933 -4.47297,-1.65002 -4,-2.41529 0.26868,-0.43474 -0.14666,-1.03417 -0.92298,-1.33207 -0.77633,-0.29791 -1.66707,0.12435 -1.97942,0.93834 -0.4278,1.11482 -1.03261,1.23129 -2.45128,0.47204 -1.03585,-0.55437 -2.14811,-0.74318 -2.47171,-0.41959 -0.32359,0.3236 -1.38265,0.28356 -2.35346,-0.089 -1.50602,-0.57791 -1.54904,-0.81397 -0.29312,-1.60822 0.80958,-0.51199 0.99432,-0.93779 0.41053,-0.94621 -0.58379,-0.008 -1.97952,0.84001 -3.10162,1.88541 -2.04219,1.90259 -3.93328,1.62537 -3.8704,-0.56739 0.0184,-0.64166 0.37096,-1.50416 0.78346,-1.91666 1.44675,-1.44675 0.73036,-2.54521 -1.25,-1.91667 -1.44039,0.45716 -2,0.1797 -2,-0.99163 0,-0.89452 -0.46971,-1.33611 -1.0438,-0.9813 -0.5741,0.35481 -1.60723,0.17751 -2.29586,-0.394 -0.68862,-0.57151 -2.64869,-0.86235 -4.35571,-0.64631 -2.1889,0.27702 -3.63774,-0.19736 -4.91571,-1.6095 -1.35669,-1.49913 -2.85949,-1.93788 -5.98023,-1.74597 -2.62928,0.16168 -5.13559,-0.37755 -6.78844,-1.46054 -2.40967,-1.57888 -2.81541,-1.58898 -5.04863,-0.12572 -2.28755,1.49886 -2.49499,1.46667 -3.577,-0.55509 -1.87371,-3.50104 -0.64471,-4.88682 3.80467,-4.29004 3.18915,0.42776 4.1983,0.14163 5.36245,-1.52043 0.89195,-1.27344 1.91286,-1.7514 2.70078,-1.26444 1.8518,1.14448 6.14559,0.0769 8.28161,-2.05916 2.18751,-2.18751 6.68754,-2.45811 7.45869,-0.44851 0.39098,1.01886 1.48899,0.39776 3.97763,-2.25 3.28113,-3.49092 3.50323,-3.57201 4.88051,-1.78193 1.78276,2.31707 4.16153,1.54722 5.70821,-1.84737 0.63352,-1.39043 1.67619,-2.52806 2.31703,-2.52806 0.64085,0 2.22226,-1.12522 3.51426,-2.50049 2.14962,-2.28817 2.53716,-2.37727 4.56392,-1.04928 1.97391,1.29335 2.38774,1.26016 3.80427,-0.30509 1.74653,-1.92989 10.97999,-4.66573 12.52473,-3.71103 0.53338,0.32964 1.56307,-0.19568 2.2882,-1.16738 0.93755,-1.25635 2.90728,-1.82941 6.81842,-1.98372 l 5.5,-0.21698 10,-10.56688 10,-10.56687 33.29221,0.0339 c 25.15174,0.0256 33.68585,-0.27178 34.90209,-1.21614 0.88544,-0.6875 3.68015,-3.3875 6.21047,-6 2.53031,-2.6125 5.02219,-4.75 5.53749,-4.75 0.51531,0 3.07013,-2.1375 5.67738,-4.75 2.60725,-2.6125 7.01632,-6.775 9.79794,-9.25 2.78161,-2.475 7.16051,-6.6375 9.73088,-9.25 2.57038,-2.6125 5.13631,-4.75 5.70207,-4.75 0.56576,0 3.16186,-2.1375 5.76911,-4.75 2.60725,-2.6125 7.01632,-6.775 9.79794,-9.25 2.78161,-2.475 7.16051,-6.6375 9.73088,-9.25 2.57038,-2.6125 5.13631,-4.75 5.70207,-4.75 0.56576,0 3.16186,-2.1375 5.76911,-4.75 2.60725,-2.6125 7.01632,-6.775 9.79794,-9.25 2.78161,-2.475 7.16051,-6.6375 9.73088,-9.25 2.57038,-2.6125 5.13631,-4.75 5.70207,-4.75 0.56576,0 3.16186,-2.1375 5.76911,-4.75 2.60725,-2.6125 7.01632,-6.775 9.79794,-9.25 2.78161,-2.475 7.16051,-6.6375 9.73088,-9.25 2.57038,-2.6125 5.09901,-4.75 5.61919,-4.75 0.52018,0 3.26026,-2.2933 6.08906,-5.09622 2.82881,-2.80292 6.6023,-6.51542 8.38554,-8.25 l 3.24225,-3.15378 0.008,-51.14301 c 0.007,-45.294 0.18524,-51.21112 1.55969,-51.73855 0.88992,-0.34149 1.29132,-0.17385 0.94098,0.39301 -0.33602,0.5437 -0.0594,0.98855 0.61473,0.98855 0.67413,0 0.96243,0.26326 0.64067,0.58501 -0.83647,0.83648 1.25799,6.41499 2.40852,6.41499 0.52866,0 0.68308,0.45 0.34316,1 -0.33992,0.55 -0.11492,1 0.5,1 0.61492,0 0.83992,0.45 0.5,1 -0.33992,0.55 -0.23724,1 0.22818,1 0.46542,0 0.92198,1.00584 1.01458,2.23519 0.0926,1.22935 0.64114,2.39279 1.21904,2.58541 0.5779,0.19262 0.7963,0.76179 0.4854,1.26481 -0.3109,0.50302 -0.1028,0.91459 0.4624,0.91459 0.5652,0 0.7686,0.675 0.452,1.5 -0.3166,0.825 -0.051,1.5 0.5904,1.5 0.6413,0 0.8879,0.45 0.548,1 -0.3399,0.55 -0.1556,1 0.4096,1 0.5652,0 0.7686,0.675 0.452,1.5 -0.3166,0.825 -0.092,1.5 0.5,1.5 0.5916,0 0.8166,0.675 0.5,1.5 -0.3166,0.825 -0.051,1.5 0.5904,1.5 0.6413,0 0.8879,0.45 0.548,1 -0.3399,0.55 -0.1556,1 0.4096,1 0.5652,0 0.7686,0.675 0.452,1.5 -0.3166,0.825 -0.092,1.5 0.5,1.5 0.5916,0 0.8166,0.675 0.5,1.5 -0.3166,0.825 -0.092,1.5 0.5,1.5 0.5916,0 0.8166,0.675 0.5,1.5 -0.3166,0.825 -0.092,1.5 0.5,1.5 0.5916,0 0.8166,0.675 0.5,1.5 -0.3166,0.825 -0.092,1.5 0.5,1.5 0.5916,0 0.8166,0.675 0.5,1.5 -0.3166,0.825 -0.092,1.5 0.5,1.5 0.5916,0 0.8341,0.62948 0.5388,1.39885 -0.2952,0.76937 -0.076,1.68378 0.4878,2.03202 0.5634,0.34825 0.771,1.29377 0.4611,2.10116 -0.3098,0.80738 -0.017,1.46797 0.6507,1.46797 0.6677,0 0.9605,0.66059 0.6507,1.46797 -0.3099,0.80739 -0.1527,1.7218 0.3493,2.03203 0.502,0.31023 0.6592,1.22464 0.3493,2.03203 -0.3098,0.80738 -0.035,1.46797 0.6111,1.46797 0.7021,0 0.9298,0.77045 0.5663,1.91584 -0.3344,1.05372 -0.1324,2.20981 0.4489,2.5691 0.5814,0.35929 0.7859,1.09187 0.4546,1.62796 -0.3313,0.53609 -0.075,1.61029 0.5698,2.3871 0.6447,0.77681 0.9011,1.85101 0.5698,2.3871 -0.3313,0.53609 -0.1268,1.26867 0.4546,1.62796 0.5813,0.35929 0.7953,1.47751 0.4756,2.48494 -0.3197,1.00743 -0.077,2.14365 0.5403,2.52494 0.6253,0.38639 0.8561,1.75154 0.5217,3.08415 -0.36,1.43439 -0.1606,2.39091 0.4984,2.39091 0.6923,0 0.8626,1.07408 0.4605,2.9048 -0.3856,1.75569 -0.1872,3.18341 0.5016,3.60909 0.6303,0.38958 0.8783,1.74532 0.5549,3.03392 -0.3216,1.28129 -0.1353,2.60737 0.4139,2.94683 0.5493,0.33947 1.0106,2.05455 1.025,3.81129 0.014,1.75674 0.2749,5.44407 0.5786,8.19407 2.1795,19.73168 2.1481,52.70921 -0.069,73 -6.0138,55.02967 -24.96552,106.32674 -54.78239,148.28109 -12.19652,17.16132 -25.33017,32.13766 -37.61376,42.89108 l -8.37109,7.32781 -78.62946,-0.23837 c -43.2462,-0.1311 -106.0199,-0.4686 -139.49712,-0.75 z m 28.58346,-62.36013 c 0.36764,-1.92321 0.10059,-2.28549 -1.39618,-1.89408 -2.55352,0.66776 -3.21505,2.06117 -1.79239,3.77537 1.50977,1.81917 2.60468,1.17316 3.18857,-1.88129 z m -40.42547,-11.4928 c 0.59954,-3.33421 2.12594,-5.32849 3.4514,-4.50931 0.60184,0.37196 0.33431,1.00837 -0.65714,1.56321 -1.0263,0.57435 -1.45066,1.63397 -1.09861,2.74319 0.33444,1.05374 8.4e-4,2.02716 -0.80004,2.33449 -1.01625,0.38997 -1.24929,-0.16466 -0.89561,-2.13158 z M -138.33696,22.60529 c -15.6692,-13.6125 -36.62877,-31.725 -46.57684,-40.25 l -18.08739,-15.5 -0.0565,-32.25 -0.0565,-32.25 h 438 438 v 32.34273 32.34274 L 627.7769,7.19802 582.66796,47.35529 H 236.41022 -109.84752 Z"
         id="path1469"
         inkscape:connector-curvature="0" />
      <path
         style="fill:#384c6b;stroke-width:3.57012439"
         d="m -163.61417,421.51633 c -43.96365,-37.58209 -76.71028,-98.74309 -88.43001,-165.16104 -6.84372,-38.78462 -6.8377,-89.80778 0.0148,-125.86292 5.48111,-28.83928 16.41116,-62.25513 26.70281,-81.63708 l 2.12397,-4 0.0442,53.05887 c 0.0341,40.89657 0.33072,53.41532 1.29419,54.61392 0.6875,0.85528 35.76822,32.44129 77.95717,70.19113 l 76.70716,68.63608 H 83.843 234.88583 v 68.5 68.5 l -195.25,-1e-4 -195.25,-1.1e-4 z m 512.09501,4.59995 c 1.04775,-1.23145 6.83165,-7.56142 12.85313,-14.06659 l 10.94814,-11.82757 4.55186,0.58533 c 2.50352,0.32193 5.22686,0.13378 6.05186,-0.4181 1.21317,-0.81156 1.04634,-1.00636 -0.87244,-1.01875 -1.87065,-0.0121 -2.13687,-0.29916 -1.25868,-1.35732 1.5323,-1.8463 0.3449,-2.73131 -2.76734,-2.06258 l -2.60154,0.559 2.5,-1.35674 c 1.375,-0.7462 2.51204,-2.01845 2.52675,-2.8272 0.0167,-0.91846 0.86135,-1.38105 2.25,-1.23226 1.84588,0.19778 2.22325,-0.25898 2.22325,-2.69098 0,-1.61106 0.45734,-3.21185 1.01631,-3.55731 0.55897,-0.34546 0.78903,-0.99586 0.51125,-1.44533 -0.42823,-0.69289 1.5092,-1.59183 4.24536,-1.96977 0.39989,-0.0552 0.77914,0.82622 0.84277,1.95879 0.0664,1.18251 -1.71782,3.94578 -4.19086,6.49034 -2.3686,2.43711 -3.99566,4.58292 -3.61569,4.76845 1.43355,0.69997 3.68258,0.074 3.48055,-0.96879 -0.11567,-0.59701 0.67183,-1.8838 1.75,-2.85953 1.07817,-0.97573 1.96031,-2.40964 1.96031,-3.18646 0,-0.91322 0.64631,-1.20727 1.82872,-0.83198 1.55198,0.49258 1.7618,0.12445 1.3865,-2.43261 -0.29107,-1.98317 -0.0139,-3.01303 0.81104,-3.01303 0.68929,0 1.81607,-0.76969 2.50395,-1.71043 1.05595,-1.4441 1.65932,-1.52425 3.87497,-0.51473 2.20345,1.00396 2.91608,0.91744 4.44397,-0.53957 1.00083,-0.9544 2.82956,-2.32366 4.06384,-3.04281 2.02713,-1.1811 2.30362,-1.08439 2.85911,1 l 0.61496,2.30754 0.645,-2.5 c 0.35474,-1.375 1.15422,-2.39198 1.77661,-2.25995 1.81415,0.38483 3.37524,-3.5861 2.87349,-7.3093 -0.61785,-4.58475 0.60512,-4.33769 2.81784,0.56925 1.04152,2.30967 2.49745,4 3.44531,4 1.35158,0 1.6339,-1.1038 1.59813,-6.24834 -0.0239,-3.43659 -0.49344,-6.28796 -1.04344,-6.33637 -2.03735,-0.17933 -4.47297,-1.65002 -4,-2.41529 0.26868,-0.43474 -0.14666,-1.03417 -0.92298,-1.33207 -0.77633,-0.29791 -1.66707,0.12435 -1.97942,0.93834 -0.4278,1.11482 -1.03261,1.23129 -2.45128,0.47204 -1.03585,-0.55437 -2.14811,-0.74318 -2.47171,-0.41959 -0.32359,0.3236 -1.38265,0.28356 -2.35346,-0.089 -1.50602,-0.57791 -1.54904,-0.81397 -0.29312,-1.60822 0.80958,-0.51199 0.99432,-0.93779 0.41053,-0.94621 -0.58379,-0.008 -1.97952,0.84001 -3.10162,1.88541 -2.04219,1.90259 -3.93328,1.62537 -3.8704,-0.56739 0.0184,-0.64166 0.37096,-1.50416 0.78346,-1.91666 1.44675,-1.44675 0.73036,-2.54521 -1.25,-1.91667 -1.44039,0.45716 -2,0.1797 -2,-0.99163 0,-0.89452 -0.46971,-1.33611 -1.0438,-0.9813 -0.5741,0.35481 -1.60723,0.17751 -2.29586,-0.394 -0.68862,-0.57151 -2.64869,-0.86235 -4.35571,-0.64631 -2.1889,0.27702 -3.63774,-0.19736 -4.91571,-1.6095 -1.35669,-1.49913 -2.85949,-1.93788 -5.98023,-1.74597 -2.62928,0.16168 -5.13559,-0.37755 -6.78844,-1.46054 -2.40967,-1.57888 -2.81541,-1.58898 -5.04863,-0.12572 -2.28755,1.49886 -2.49499,1.46667 -3.577,-0.55509 -1.87371,-3.50104 -0.64471,-4.88682 3.80467,-4.29004 3.18915,0.42776 4.1983,0.14163 5.36245,-1.52043 0.89195,-1.27344 1.91286,-1.7514 2.70078,-1.26444 1.8518,1.14448 6.14559,0.0769 8.28161,-2.05916 2.18751,-2.18751 6.68754,-2.45811 7.45869,-0.44851 0.39098,1.01886 1.48899,0.39776 3.97763,-2.25 3.28113,-3.49092 3.50323,-3.57201 4.88051,-1.78193 1.78276,2.31707 4.16153,1.54722 5.70821,-1.84737 0.63352,-1.39043 1.67619,-2.52806 2.31703,-2.52806 0.64085,0 2.22226,-1.12522 3.51426,-2.50049 2.14962,-2.28817 2.53716,-2.37727 4.56392,-1.04928 1.97391,1.29335 2.38774,1.26016 3.80427,-0.30509 1.74653,-1.92989 10.97999,-4.66573 12.52473,-3.71103 0.53338,0.32964 1.56307,-0.19568 2.2882,-1.16738 0.93755,-1.25635 2.90728,-1.82941 6.81842,-1.98372 l 5.5,-0.21698 10,-10.56688 10,-10.56687 33.58606,0.0339 33.58606,0.0338 77.16394,-69.68855 77.16394,-69.68854 v -51.89479 c 0,-38.29221 0.29775,-51.79554 1.13594,-51.51614 2.83235,0.94412 16.48456,35.98796 22.51056,57.78236 6.6164,23.92995 11.3594,59.4776 11.3494,85.06222 -0.034,86.98917 -31.81067,167.42561 -88.17366,223.19344 l -12.88607,12.75 H 486.69893 346.57585 Z m 87.62078,-60.10949 c 0.36764,-1.92321 0.10059,-2.28549 -1.39618,-1.89408 -2.55352,0.66776 -3.21505,2.06117 -1.79239,3.77537 1.50977,1.81917 2.60468,1.17316 3.18857,-1.88129 z m -40.42547,-11.4928 c 0.59954,-3.33421 2.12594,-5.32849 3.4514,-4.50931 0.60184,0.37196 0.33431,1.00837 -0.65714,1.56321 -1.0263,0.57435 -1.45066,1.63397 -1.09861,2.74319 0.33444,1.05374 8.4e-4,2.02716 -0.80004,2.33449 -1.01625,0.38997 -1.24929,-0.16466 -0.89561,-2.13158 z M -138.33696,22.60529 c -15.6692,-13.6125 -36.62877,-31.725 -46.57684,-40.25 l -18.08739,-15.5 -0.0565,-32.25 -0.0565,-32.25 h 438 438 v 32.34273 32.34274 L 627.7769,7.19802 582.66796,47.35529 H 236.41022 -109.84752 Z"
         id="path1467"
         inkscape:connector-curvature="0" />
      <path
         style="fill:#384866;stroke-width:3.57012439"
         d="m -163.61417,421.51633 c -43.96365,-37.58209 -76.71028,-98.74309 -88.43001,-165.16104 -6.84372,-38.78462 -6.8377,-89.80778 0.0148,-125.86292 5.48111,-28.83928 16.41116,-62.25513 26.70281,-81.63708 l 2.12397,-4 0.0442,53.05887 c 0.0341,40.89657 0.33072,53.41532 1.29419,54.61392 0.6875,0.85528 35.76822,32.44129 77.95717,70.19113 l 76.70716,68.63608 H 83.843 234.88583 v 68.5 68.5 l -195.25,-1e-4 -195.25,-1.1e-4 z m 581.67208,2.97175 c 1.83035,-2.12697 7.59382,-8.48544 12.8077,-14.12993 8.6489,-9.3632 9.2088,-10.20319 6.388,-9.58364 -1.70048,0.37349 -5.19249,0.15011 -7.76002,-0.4964 l -4.66823,-1.17548 4.5273,-2.18196 c 7.08296,-3.41367 11.19896,-8.77654 10.09915,-13.15852 -0.34212,-1.3631 -0.16216,-2.40686 0.41497,-2.40686 0.56048,0 1.05458,-0.7875 1.098,-1.75 0.0612,-1.35664 0.19002,-1.41284 0.57312,-0.25 0.27179,0.825 0.85524,2.4 1.29654,3.5 0.4413,1.1 1.29875,3.2375 1.90544,4.75 0.60669,1.5125 1.56272,2.75 2.12451,2.75 0.56179,0 1.05181,-1.2375 1.08893,-2.75 0.19148,-7.80242 1.97379,-12.06978 5.10305,-12.2182 1.14812,-0.0544 1.96674,5.57305 1.23488,8.489 -0.49426,1.96932 -0.36369,2.57145 0.44874,2.06934 0.63021,-0.3895 1.14584,-2.65152 1.14584,-5.02671 0,-4.45993 1.05572,-6.04708 4.5,-6.76521 1.1,-0.22935 1.8762,-1.06527 1.7249,-1.85761 -0.15131,-0.79234 0.64171,-0.31561 1.76226,1.05939 1.87302,2.29833 2.12106,2.35883 3.07481,0.74998 0.57059,-0.96251 2.36507,-2.43657 3.98773,-3.27568 2.67088,-1.38117 2.9503,-1.37478 2.9503,0.0674 0,1.19345 0.5644,1.41693 2.25,0.8909 2.64574,-0.82567 3.87005,-2.4153 2.99206,-3.88486 -0.34429,-0.57626 0.20031,-0.37628 1.21023,0.44441 1.70095,1.38224 1.78231,1.32236 1.10455,-0.81306 -0.67749,-2.13461 -0.57716,-2.20874 1.35576,-1.00161 1.14807,0.71698 2.0874,1.87036 2.0874,2.56306 0,0.6927 0.375,1.25945 0.83333,1.25945 1.63025,0 2.08185,-1.28997 1.0963,-3.13148 -0.82857,-1.54821 -0.641,-1.86852 1.0942,-1.86852 1.15181,0 1.83984,-0.41157 1.52896,-0.91459 -0.31089,-0.50302 5e-5,-1.14377 0.69098,-1.42387 0.95232,-0.38607 0.89335,-0.77971 -0.24377,-1.62711 -1.33333,-0.99362 -1.33333,-1.09567 0,-0.91841 1.69664,0.22556 4.05427,-0.53573 8.69526,-2.80775 1.7574,-0.86034 3.8949,-1.29578 4.75,-0.96765 0.95047,0.36473 1.55474,0.052 1.55474,-0.80462 0,-0.77067 0.95946,-1.70574 2.13213,-2.07794 1.67489,-0.53159 1.83573,-0.86443 0.75,-1.55207 -0.76017,-0.48145 -0.93213,-0.8982 -0.38213,-0.92611 1.34578,-0.0683 -3.67208,-2.89947 -5.21862,-2.94444 -0.67755,-0.0197 -0.96304,0.63056 -0.64301,1.46456 0.60411,1.57428 -0.44417,1.89549 -2.99344,0.91724 -0.83526,-0.32052 -1.27391,-1.22052 -0.9748,-2 0.29912,-0.77948 0.28091,-2.10245 -0.0405,-2.93992 -0.49509,-1.29018 -0.89315,-1.21384 -2.60699,0.5 -2.65953,2.65953 -3.85377,2.51337 -7.92768,-0.97019 -2.74212,-2.34476 -3.7794,-2.71122 -5.32814,-1.88236 -1.05773,0.56608 -2.56298,0.78371 -3.345,0.48362 -0.78202,-0.30009 -1.43397,0.003 -1.44876,0.67299 -0.0148,0.67024 -1.29621,-0.31189 -2.84758,-2.18251 -1.87098,-2.25599 -3.06361,-3.00806 -3.5422,-2.23368 -0.39683,0.64209 -1.14042,0.90854 -1.65242,0.5921 -0.51199,-0.31643 -0.9309,0.14744 -0.9309,1.03082 0,1.20152 -1.02794,0.78006 -4.08042,-1.67298 -3.7125,-2.98345 -4.16888,-3.12105 -5.06146,-1.52609 -1.18656,2.12035 -2.85808,1.33196 -2.85808,-1.34805 0,-1.06754 -0.42416,-1.94098 -0.94258,-1.94098 -0.51842,0 -0.77108,0.89054 -0.56147,1.97897 0.55016,2.85675 -0.86487,3.25762 -3.34451,0.94749 -1.18329,-1.1024 -2.15144,-1.51028 -2.15144,-0.9064 0,0.60389 -0.48075,0.80086 -1.06833,0.43771 -1.16826,-0.72203 2.0491,-4.49822 3.24923,-3.81358 0.3745,0.21364 0.96356,-0.0689 1.30902,-0.62788 0.34546,-0.55897 -0.0734,-1.01631 -0.9309,-1.01631 -2.38712,0 -1.85247,-1.89787 0.69098,-2.4528 5.56245,-1.21361 6.24535,-1.08006 6.58058,1.28695 0.3103,2.191 0.4395,2.12967 2.10657,-1 0.97679,-1.83378 2.84931,-3.87988 4.16114,-4.54687 2.11377,-1.07474 2.47926,-0.96097 3.21235,1 0.81059,2.16829 0.85593,2.17375 2.25828,0.27159 0.78709,-1.06762 1.43108,-2.47502 1.43108,-3.12755 0,-0.65254 0.71744,-1.78185 1.5943,-2.50958 1.35442,-1.12407 1.84343,-1.00013 3.25,0.82372 1.34499,1.744 1.94882,1.92241 3.21767,0.95071 0.85909,-0.65789 1.87538,-2.03036 2.25843,-3.04992 0.40717,-1.08375 1.29637,-1.62355 2.14071,-1.29955 0.84976,0.32609 2.23725,-0.53439 3.37074,-2.09042 1.86855,-2.56511 2.0035,-2.59418 4.48746,-0.96663 2.45418,1.60804 2.63644,1.58486 4.37083,-0.55582 0.99542,-1.22861 2.70986,-2.37505 3.80986,-2.54765 1.1,-0.17261 4.025,-0.76517 6.5,-1.31682 4.93887,-1.1008 8.35369,-1.55394 13.1455,-1.74436 2.63706,-0.10479 4.8535,-1.91856 13.71194,-11.22078 5.81153,-6.10268 43.99605,-41.28793 84.85449,-78.18945 l 74.28807,-67.09365 V 138.76715 124.5579 l 6.75308,-7.3513 c 3.71422,-4.04322 8.66422,-9.47876 11.00002,-12.07897 2.3358,-2.60021 4.2469,-4.57882 4.2469,-4.3969 0,0.18191 1.3375,5.45935 2.9722,11.72765 8.2478,31.62584 11.538,69.85573 8.9848,104.39691 -5.8958,79.76424 -35.78696,147.94441 -87.13476,198.75 l -12.88607,12.75 H 520.77599 414.72998 Z m 4.40869,-27.00209 c -0.33539,-0.54269 0.38823,-1.30347 1.60807,-1.69064 2.70977,-0.86004 4.31116,-2.47391 4.31116,-4.34473 0,-0.77257 0.81791,-1.52471 1.81757,-1.67143 1.59807,-0.23455 1.52925,0.10711 -0.56988,2.82909 -3.03356,3.93369 -6.35378,6.19339 -7.16692,4.87771 z M -138.33696,22.60529 c -15.6692,-13.6125 -36.62877,-31.725 -46.57684,-40.25 l -18.08739,-15.5 -0.0565,-32.25 -0.0565,-32.25 h 438 438 v 32.34273 32.34274 L 627.7769,7.19802 582.66796,47.35529 H 236.41022 -109.84752 Z"
         id="path1465"
         inkscape:connector-curvature="0" />
      <path
         style="fill:#88342a;stroke-width:3.57012439"
         d="m -163.61417,421.51633 c -43.96365,-37.58209 -76.71028,-98.74309 -88.43001,-165.16104 -6.84372,-38.78462 -6.8377,-89.80778 0.0148,-125.86292 5.48111,-28.83928 16.41116,-62.25513 26.70281,-81.63708 l 2.12397,-4 0.0442,53.05887 c 0.0341,40.89657 0.33072,53.41532 1.29419,54.61392 0.6875,0.85528 35.76822,32.44129 77.95717,70.19113 l 76.70716,68.63608 H 83.843 234.88583 v 68.5 68.5 l -195.25,-1e-4 -195.25,-1.1e-4 z m 622.5,6.2742 c 0,-0.31062 5.63677,-6.67385 12.52616,-14.14051 6.88938,-7.46667 12.32065,-13.78125 12.06949,-14.03242 -0.25117,-0.25116 -3.16757,-0.54257 -6.4809,-0.64756 -3.31333,-0.105 -6.3821,-0.56869 -6.81949,-1.03042 -0.4374,-0.46173 0.66724,-0.63503 2.45474,-0.38511 1.7875,0.24992 3.25307,0.19483 3.25682,-0.12241 0.004,-0.31725 3.70803,-0.6667 8.23175,-0.77657 10.61891,-0.2579 12.59979,-0.80805 13.32588,-3.70101 0.43744,-1.74288 1.10881,-2.23593 2.53631,-1.86263 1.46001,0.3818 1.67474,0.82897 0.866,1.80345 -0.84007,1.01223 -0.5093,1.23362 1.51168,1.01177 3.71601,-0.40791 4.18837,-1.3478 1.24061,-2.46854 -2.83446,-1.07766 -2.96676,-2.46383 -0.56274,-5.89606 l 1.61043,-2.29921 2.01055,2.55599 c 2.52133,3.20535 3.22271,3.21754 3.22271,0.056 0,-1.49925 0.57149,-2.5 1.42765,-2.5 0.78521,0 2.24771,-1.87303 3.25,-4.16229 l 1.82235,-4.16229 0.5,4.41229 c 0.275,2.42676 0.95,4.29979 1.5,4.16229 0.55,-0.1375 1,-0.69133 1,-1.23074 0,-0.53941 1.0125,-1.68993 2.25,-2.55671 2.43183,-1.70332 2.93994,-5.51767 1.3071,-9.81237 -0.71549,-1.88188 -0.5949,-2.61356 0.5,-3.03372 0.79359,-0.30453 1.4429,-0.0857 1.4429,0.48635 0,0.57203 0.70714,0.3329 1.57143,-0.53138 0.86428,-0.86429 2.41273,-1.57143 3.44098,-1.57143 1.02826,0 2.13552,-0.43035 2.4606,-0.95633 0.32507,-0.52598 1.32545,-0.6745 2.22306,-0.33006 1.02585,0.39366 1.38487,0.22637 0.9666,-0.45041 -0.42256,-0.68371 0.0596,-0.88708 1.32101,-0.55722 1.09254,0.28571 2.78066,0.17011 3.75138,-0.25689 0.97072,-0.427 1.98994,-0.82211 2.26494,-0.87804 0.275,-0.0559 1.0625,-0.45884 1.75,-0.89538 0.6875,-0.43654 1.7,-0.51559 2.25,-0.17567 0.57863,0.35761 1,-0.60073 1,-2.27432 0,-3.88157 0.77359,-4.42014 3.64583,-2.53817 3.13898,2.05674 4.06313,1.04344 1.96658,-2.1563 -1.80593,-2.75619 -1.50128,-3.07729 1.43083,-1.50807 1.58359,0.84751 1.80223,0.73774 1.27372,-0.63953 -0.52757,-1.37483 -0.31636,-1.48266 1.21999,-0.62287 1.46039,0.81727 2.54617,0.51491 5.07366,-1.4129 3.46711,-2.6445 5.28978,-5.63058 2.87008,-4.70206 -0.7796,0.29916 -1.31918,1.0075 -1.19907,1.57408 0.12011,0.56658 -0.34443,1.23649 -1.0323,1.4887 -0.80139,0.29383 -1.03238,-0.11032 -0.64301,-1.125 0.72904,-1.89985 -1.0367,-2.01911 -8.6153,-0.58185 -6.32799,1.20007 -9.13447,-0.0807 -6.51624,-2.97383 2.87196,-3.17348 1.52686,-3.12344 -2.47438,0.092 -2.19979,1.7678 -4.26333,2.95046 -4.58565,2.62814 -0.32232,-0.32231 0.37664,-1.10124 1.55325,-1.73094 l 2.13928,-1.14491 -2.50813,-1.9729 c -1.47386,-1.15934 -2.27458,-2.58153 -1.94176,-3.44884 0.3115,-0.81177 -0.0465,-2.25772 -0.7955,-3.21321 -1.21463,-1.54943 -1.18318,-1.5976 0.29087,-0.44553 1.35069,1.05565 1.75033,1.05565 2.18663,0 0.29363,-0.71046 0.44989,-0.16674 0.34725,1.20826 -0.12144,1.62674 0.3314,2.5 1.29641,2.5 1.60804,0 2.86043,-5.09956 2.95933,-12.05 0.0317,-2.2275 0.59763,-4.59 1.25763,-5.25 0.93333,-0.93333 0.92022,-1.2 -0.059,-1.2 -0.69246,0 -0.95315,-0.4949 -0.57932,-1.09977 0.45991,-0.74414 -0.0305,-0.71966 -1.51668,0.0757 -2.03473,1.08895 -2.11461,1.0227 -1.08549,-0.90024 0.91669,-1.71284 0.82113,-2.07564 -0.54677,-2.07564 -1.37114,0 -1.43919,-0.2632 -0.39374,-1.52289 1.05678,-1.27335 0.99492,-1.41968 -0.37756,-0.89301 -0.90279,0.34643 -1.64144,0.20673 -1.64144,-0.31044 0,-1.89579 1.3934,-2.24592 3.48473,-0.87562 1.96872,1.28995 2.42158,1.12154 5.52845,-2.056 2.67245,-2.73324 4.05478,-3.40327 6.57358,-3.18626 1.75423,0.15114 3.80234,-0.20992 4.55137,-0.80234 0.74903,-0.59243 3.61187,-1.37105 6.36187,-1.73028 4.01185,-0.52406 5.71313,-1.39129 8.60842,-4.38815 1.98464,-2.05426 35.95964,-39.04365 75.5,-82.19866 l 71.89158,-78.46366 1.1521,7.5466 c 3.184,20.85644 4.038,46.93386 2.3049,70.38071 -5.8958,79.76424 -35.78696,147.94441 -87.13476,198.75 l -12.88607,12.75 h -83.96809 c -46.18244,0 -83.96808,-0.25414 -83.96808,-0.56476 z m 69.98469,-59.24426 c -0.012,-2.10476 -0.22649,-2.36421 -0.98469,-1.19098 -1.2769,1.97586 -1.2769,5.28917 0,4.5 0.55,-0.33992 0.99311,-1.82898 0.98469,-3.30902 z M -138.33696,22.60529 c -15.6692,-13.6125 -36.62877,-31.725 -46.57684,-40.25 l -18.08739,-15.5 -0.0565,-32.25 -0.0565,-32.25 h 438 438 v 32.34273 32.34274 L 627.7769,7.19802 582.66796,47.35529 H 236.41022 -109.84752 Z"
         id="path1463"
         inkscape:connector-curvature="0" />
      <path
         style="fill:#384563;stroke-width:3.57012439"
         d="m 458.88583,427.79053 c 0,-0.31062 5.63677,-6.67385 12.52616,-14.14051 6.88938,-7.46667 12.32065,-13.78125 12.06949,-14.03242 -0.25117,-0.25116 -3.16757,-0.54257 -6.4809,-0.64756 -3.31333,-0.105 -6.3821,-0.56869 -6.81949,-1.03042 -0.4374,-0.46173 0.66724,-0.63503 2.45474,-0.38511 1.7875,0.24992 3.25307,0.19483 3.25682,-0.12241 0.004,-0.31725 3.70803,-0.6667 8.23175,-0.77657 10.61891,-0.2579 12.59979,-0.80805 13.32588,-3.70101 0.43744,-1.74288 1.10881,-2.23593 2.53631,-1.86263 1.46001,0.3818 1.67474,0.82897 0.866,1.80345 -0.84007,1.01223 -0.5093,1.23362 1.51168,1.01177 3.71601,-0.40791 4.18837,-1.3478 1.24061,-2.46854 -2.83446,-1.07766 -2.96676,-2.46383 -0.56274,-5.89606 l 1.61043,-2.29921 2.01055,2.55599 c 2.52133,3.20535 3.22271,3.21754 3.22271,0.056 0,-1.49925 0.57149,-2.5 1.42765,-2.5 0.78521,0 2.24771,-1.87303 3.25,-4.16229 l 1.82235,-4.16229 0.5,4.41229 c 0.275,2.42676 0.95,4.29979 1.5,4.16229 0.55,-0.1375 1,-0.69133 1,-1.23074 0,-0.53941 1.0125,-1.68993 2.25,-2.55671 2.43183,-1.70332 2.93994,-5.51767 1.3071,-9.81237 -0.71549,-1.88188 -0.5949,-2.61356 0.5,-3.03372 0.79359,-0.30453 1.4429,-0.0857 1.4429,0.48635 0,0.57203 0.70714,0.3329 1.57143,-0.53138 0.86428,-0.86429 2.41273,-1.57143 3.44098,-1.57143 1.02826,0 2.13552,-0.43035 2.4606,-0.95633 0.32507,-0.52598 1.32545,-0.6745 2.22306,-0.33006 1.02585,0.39366 1.38487,0.22637 0.9666,-0.45041 -0.42256,-0.68371 0.0596,-0.88708 1.32101,-0.55722 1.09254,0.28571 2.78066,0.17011 3.75138,-0.25689 0.97072,-0.427 1.98994,-0.82211 2.26494,-0.87804 0.275,-0.0559 1.0625,-0.45884 1.75,-0.89538 0.6875,-0.43654 1.7,-0.51559 2.25,-0.17567 0.57863,0.35761 1,-0.60073 1,-2.27432 0,-3.88157 0.77359,-4.42014 3.64583,-2.53817 3.13898,2.05674 4.06313,1.04344 1.96658,-2.1563 -1.80593,-2.75619 -1.50128,-3.07729 1.43083,-1.50807 1.58359,0.84751 1.80223,0.73774 1.27372,-0.63953 -0.52757,-1.37483 -0.31636,-1.48266 1.21999,-0.62287 1.46039,0.81727 2.54617,0.51491 5.07366,-1.4129 3.46711,-2.6445 5.28978,-5.63058 2.87008,-4.70206 -0.7796,0.29916 -1.31918,1.0075 -1.19907,1.57408 0.12011,0.56658 -0.34443,1.23649 -1.0323,1.4887 -0.80139,0.29383 -1.03238,-0.11032 -0.64301,-1.125 0.72904,-1.89985 -1.0367,-2.01911 -8.6153,-0.58185 -6.32799,1.20007 -9.13447,-0.0807 -6.51624,-2.97383 2.87196,-3.17348 1.52686,-3.12344 -2.47438,0.092 -2.19979,1.7678 -4.26333,2.95046 -4.58565,2.62814 -0.32232,-0.32231 0.37664,-1.10124 1.55325,-1.73094 l 2.13928,-1.14491 -2.50813,-1.9729 c -1.47386,-1.15934 -2.27458,-2.58153 -1.94176,-3.44884 0.3115,-0.81177 -0.0465,-2.25772 -0.7955,-3.21321 -1.21463,-1.54943 -1.18318,-1.5976 0.29087,-0.44553 1.35069,1.05565 1.75033,1.05565 2.18663,0 0.29363,-0.71046 0.44989,-0.16674 0.34725,1.20826 -0.12144,1.62674 0.3314,2.5 1.29641,2.5 1.60804,0 2.86043,-5.09956 2.95933,-12.05 0.0317,-2.2275 0.59763,-4.59 1.25763,-5.25 0.93333,-0.93333 0.92022,-1.2 -0.059,-1.2 -0.69246,0 -0.95315,-0.4949 -0.57932,-1.09977 0.45991,-0.74414 -0.0305,-0.71966 -1.51668,0.0757 -2.03473,1.08895 -2.11461,1.0227 -1.08549,-0.90024 0.91669,-1.71284 0.82113,-2.07564 -0.54677,-2.07564 -1.37114,0 -1.43919,-0.2632 -0.39374,-1.52289 1.05678,-1.27335 0.99492,-1.41968 -0.37756,-0.89301 -0.90279,0.34643 -1.64144,0.20673 -1.64144,-0.31044 0,-1.89579 1.3934,-2.24592 3.48473,-0.87562 1.96872,1.28995 2.42158,1.12154 5.52845,-2.056 2.67245,-2.73324 4.05478,-3.40327 6.57358,-3.18626 1.75423,0.15114 3.80234,-0.20992 4.55137,-0.80234 0.74903,-0.59243 3.61187,-1.37105 6.36187,-1.73028 4.01185,-0.52406 5.71313,-1.39129 8.60842,-4.38815 1.98464,-2.05426 35.95964,-39.04365 75.5,-82.19866 l 71.89158,-78.46366 1.1521,7.5466 c 3.184,20.85644 4.038,46.93386 2.3049,70.38071 -5.8958,79.76424 -35.78696,147.94441 -87.13476,198.75 l -12.88607,12.75 h -83.96809 c -46.18244,0 -83.96808,-0.25414 -83.96808,-0.56476 z m 69.98469,-59.24426 c -0.012,-2.10476 -0.22649,-2.36421 -0.98469,-1.19098 -1.2769,1.97586 -1.2769,5.28917 0,4.5 0.55,-0.33992 0.99311,-1.82898 0.98469,-3.30902 z"
         id="path1461"
         inkscape:connector-curvature="0" />
      <path
         style="fill:#38405e;stroke-width:3.57012439"
         d="m 506.52914,426.10529 c 15.34057,-17.32799 27.12364,-29.35471 29.27631,-29.88169 1.41921,-0.34742 4.00158,-0.68492 5.7386,-0.75 3.95735,-0.14825 11.50217,-7.1544 13.42207,-12.46379 1.38379,-3.82682 3.5512,-5.21953 2.37996,-1.52929 -0.5205,1.63995 -0.36462,1.92538 0.68262,1.25 0.74642,-0.48138 2.20549,-0.87523 3.24238,-0.87523 2.90696,0 5.88748,-4.75663 5.88748,-9.39587 0,-2.22948 0.38863,-3.81342 0.86363,-3.51985 0.475,0.29356 0.86364,1.15564 0.86364,1.91572 0,0.76008 0.51524,1.7004 1.14499,2.08961 0.792,0.48948 0.98681,-0.11982 0.6319,-1.97639 -0.37227,-1.94741 -3.9e-4,-2.95842 1.35501,-3.68381 1.02746,-0.54988 1.8681,-1.93209 1.8681,-3.07158 0,-1.46158 0.45711,-1.8964 1.55194,-1.47627 0.9258,0.35526 1.29452,0.17903 0.91391,-0.43682 -0.35092,-0.56779 -0.0942,-1.68764 0.5705,-2.48854 0.6647,-0.80091 0.84359,-1.4562 0.39753,-1.4562 -0.44605,0 0.17385,-0.91753 1.37756,-2.03896 1.20371,-1.12142 2.18856,-2.43567 2.18856,-2.92054 0,-0.48487 1.31241,-1.16984 2.91646,-1.52215 1.60405,-0.35231 3.1739,-1.31144 3.48855,-2.13139 0.34466,-0.89819 0.14976,-1.22983 -0.49029,-0.83425 -0.5843,0.36111 -0.48254,-0.27187 0.22614,-1.40665 0.70867,-1.13477 2.15283,-2.19436 3.20922,-2.35464 1.0564,-0.16028 2.6043,-1.32594 3.43979,-2.59036 1.49745,-2.26623 1.48124,-2.28171 -1.13963,-1.08756 -3.84843,1.75346 -4.62282,0.1231 -1.29995,-2.73687 1.86194,-1.60257 3.02624,-3.74029 3.35769,-6.16493 0.34307,-2.50964 1.92987,-5.32212 4.8997,-8.68432 4.01091,-4.54082 4.39425,-4.75791 4.41456,-2.5 l 0.0222,2.47262 1.95553,-2.5 c 1.07554,-1.375 1.96553,-3.29391 1.97776,-4.26424 0.0122,-0.97034 26.68474,-30.83398 59.27224,-66.36365 32.5875,-35.52967 59.5559,-65.33576 59.9297,-66.23576 1.0451,-2.51584 0.9186,15.68781 -0.2213,31.86365 -5.609,79.59412 -35.66553,148.32288 -87.13616,199.25 l -12.88607,12.75 h -61.1424 -61.1424 z m 44.79193,-32.64522 c 0.96062,-1.55432 -2.23246,-2.05404 -3.48457,-0.54534 -0.9751,1.17492 -0.81507,1.44056 0.86787,1.44056 1.13488,0 2.3124,-0.40285 2.6167,-0.89522 z m 38.50484,-60.35478 c 0.49347,-1.2375 1.16941,-3.10191 1.5021,-4.14313 0.3327,-1.04122 0.84567,-1.65236 1.13994,-1.35808 0.59832,0.59832 -2.17902,7.75121 -3.00965,7.75121 -0.29128,0 -0.12585,-1.0125 0.36761,-2.25 z"
         id="path1459"
         inkscape:connector-curvature="0" />
      <path
         style="fill:#383d5a;stroke-width:3.57012439"
         d="m 565.04887,425.60529 c 1.39547,-1.5125 37.07798,-40.46419 79.29445,-86.55931 42.21647,-46.09512 76.94571,-83.6208 77.17611,-83.39039 0.7487,0.74862 -4.608,24.36178 -8.2571,36.39892 -14.99519,49.46469 -45.44706,99.01212 -79.6219,129.55078 l -7.55371,6.75 h -31.78754 -31.78753 z"
         id="path1457"
         inkscape:connector-curvature="0" />
    </g>
  </g>
</svg>
