<?xml version="1.0" encoding="UTF-8" standalone="no"?>
<!-- Created with Inkscape (http://www.inkscape.org/) -->

<svg
   xmlns:dc="http://purl.org/dc/elements/1.1/"
   xmlns:cc="http://creativecommons.org/ns#"
   xmlns:rdf="http://www.w3.org/1999/02/22-rdf-syntax-ns#"
   xmlns:svg="http://www.w3.org/2000/svg"
   xmlns="http://www.w3.org/2000/svg"
   xmlns:sodipodi="http://sodipodi.sourceforge.net/DTD/sodipodi-0.dtd"
   xmlns:inkscape="http://www.inkscape.org/namespaces/inkscape"
   width="300px"
   height="300px"
   viewBox="0 0 300 300"
   version="1.1"
   id="SVGRoot"
   inkscape:version="0.92.4 (5da689c313, 2019-01-14)"
   sodipodi:docname="triumph_black.svg">
  <defs
     id="defs1445" />
  <sodipodi:namedview
     id="base"
     pagecolor="#ffffff"
     bordercolor="#666666"
     borderopacity="1.0"
     inkscape:pageopacity="0.0"
     inkscape:pageshadow="2"
     inkscape:zoom="1.979899"
     inkscape:cx="39.467442"
     inkscape:cy="111.77759"
     inkscape:document-units="px"
     inkscape:current-layer="layer1"
     showgrid="false"
     inkscape:window-width="1855"
     inkscape:window-height="1057"
     inkscape:window-x="-8"
     inkscape:window-y="-8"
     inkscape:window-maximized="1"
     inkscape:pagecheckerboard="true" />
  <metadata
     id="metadata1448">
    <rdf:RDF>
      <cc:Work
         rdf:about="">
        <dc:format>image/svg+xml</dc:format>
        <dc:type
           rdf:resource="http://purl.org/dc/dcmitype/StillImage" />
        <dc:title />
      </cc:Work>
    </rdf:RDF>
  </metadata>
  <g
     inkscape:label="Layer 1"
     inkscape:groupmode="layer"
     id="layer1"
     style="display:inline">
    <g
       id="g2016"
       transform="matrix(1.6575346,0,0,1.6532777,-99.768826,-108.78729)"
       style="fill:#000000;fill-opacity:0.94485295;stroke-width:0.60408181">
      <path
         style="fill:#000000;fill-opacity:0.94485295;stroke-width:0.60408181"
         d="M 132.19513,245.80167 C 110.82228,241.50003 84.770508,223.16137 73.543897,204.51522 63.258756,187.43276 60.2874,176.67288 60.2874,156.51076 c 0,-20.16211 2.971356,-30.922 13.256497,-48.00446 12.655447,-21.019283 38.826023,-38.126817 63.920413,-41.78436 45.41201,-6.618867 89.87292,23.102207 101.4552,67.82041 3.59368,13.87492 2.60322,37.98659 -2.09052,50.89165 -13.25257,36.43685 -44.74173,59.85632 -82.5214,61.37374 -7.84663,0.31517 -17.79724,-0.13757 -22.11246,-1.00607 z M 144.5193,227.5158 c -0.50342,-1.51032 -3.38783,-8.15611 -6.40979,-14.7684 l -5.49449,-12.02235 -8.0558,2.36734 c -4.4307,1.30205 -11.40001,3.79376 -15.48737,5.53714 l -7.43156,3.16979 3.50863,2.65917 c 7.35744,5.57615 18.52545,11.1924 26.55097,13.35215 11.56392,3.11198 13.93676,3.0574 12.81941,-0.29484 z m 31.77785,-2.17666 c 4.4061,-1.63828 11.37406,-5.20626 15.48438,-7.92882 l 7.4733,-4.95011 -6.85392,-3.47897 c -3.76965,-1.91344 -10.55474,-4.57633 -15.07796,-5.91755 l -8.22403,-2.43855 -4.09084,6.98051 c -2.24998,3.83927 -5.45603,10.57334 -7.12458,14.96459 l -3.03371,7.98408 6.71816,-1.11823 c 3.69497,-0.61503 10.32313,-2.45865 14.7292,-4.09695 z m -75.10328,-33.53755 c 1.81711,-4.32376 3.53368,-9.97278 3.81459,-12.55338 0.47566,-4.36964 -0.24385,-5.08865 -10.473461,-10.46628 -6.041313,-3.17588 -12.534275,-6.0716 -14.428804,-6.43494 -3.081851,-0.59105 -3.354013,-0.14813 -2.584407,4.20514 2.620927,14.82557 7.092145,25.92833 13.703268,34.02745 3.860666,4.72961 4.545522,4.12657 9.968814,-8.77799 z m 114.92845,-2.33344 c 3.66042,-7.28656 7.86938,-21.56088 7.86938,-26.68832 0,-1.84821 -10.76555,1.97704 -20.54721,7.30088 -4.51309,2.45634 -7.69789,5.28331 -7.69789,6.83303 0,2.87277 4.65357,16.90621 7.98762,24.08768 l 2.07839,4.47679 2.9859,-3.68743 c 1.64223,-2.02808 4.93795,-7.57326 7.32381,-12.32263 z m -54.75019,-13.41892 c 15.0472,-7.78119 14.21061,-32.9273 -1.31122,-39.41274 -23.89556,-9.9842 -42.83609,19.22074 -23.69965,36.54315 2.02385,1.83199 4.73892,3.71811 6.03349,4.19134 4.71505,1.72361 14.3916,1.04965 18.97738,-1.32175 z M 94.927292,144.40569 c 6.257078,-3.04137 11.376498,-6.0412 11.376498,-6.66631 0,-2.22751 -5.96633,-18.42993 -8.87262,-24.09488 l -2.956479,-5.76277 -5.254593,8.02648 c -5.619686,8.58417 -10.201402,20.40721 -11.66026,30.08911 -0.839033,5.56835 -0.670563,5.89589 2.546238,4.9505 1.894595,-0.55681 8.564142,-3.50077 14.821216,-6.54213 z m 127.447458,-3.06991 c -2.90165,-14.03507 -14.01691,-34.15488 -17.14233,-31.02946 -2.12682,2.12683 -9.48582,22.1535 -9.48582,25.81459 0,2.13246 2.51329,4.34967 8.19289,7.22774 8.80624,4.46246 18.93631,8.34996 19.797,7.59726 0.29116,-0.25462 -0.32161,-4.57918 -1.36174,-9.61013 z M 138.0444,100.41286 c 8.53599,-18.671692 8.49751,-17.844172 0.77483,-16.661432 -9.97412,1.52755 -21.74654,6.284297 -29.90051,12.081556 l -7.29671,5.187766 5.87153,2.86836 c 5.16171,2.5216 21.52416,8.37004 24.06185,8.60045 0.51119,0.0464 3.43124,-5.38811 6.48901,-12.0767 z m 54.34532,3.88389 6.84274,-3.21598 -3.70439,-2.941506 c -8.95982,-7.114638 -29.92821,-15.379593 -39.0184,-15.379593 -2.35482,0 6.48666,21.743359 11.27956,27.739179 1.69245,2.1172 12.92434,-0.7145 24.60049,-6.2021 z"
         id="path2032"
         inkscape:connector-curvature="0" />
      <path
         style="fill:#000000;fill-opacity:0.94485295;stroke-width:0.60408181"
         d="M 131.41055,245.17977 C 114.59736,241.38252 99.28947,232.82344 86.753716,220.21085 68.276191,201.62009 60.191097,182.23114 60.191097,156.51076 c 0,-25.71778 8.106583,-45.171 26.489925,-63.567383 30.392438,-30.41399 74.283638,-35.579386 111.562008,-13.129328 39.58435,23.838781 54.23787,74.688551 33.63284,116.710601 -17.90008,36.50556 -61.26703,57.50806 -100.46532,48.65512 z m 14.12175,-15.31021 c -0.006,-2.77374 -8.69048,-21.6289 -13.38185,-29.05239 -0.50913,-0.80563 -20.42189,6.01933 -25.41362,8.71034 l -5.05905,2.72731 7.88384,5.37991 c 8.07508,5.5104 26.12665,12.51416 32.44084,12.58661 1.94185,0.0223 3.53028,-0.13605 3.52984,-0.35178 z m 35.30717,-6.53221 c 6.04131,-2.84646 12.74952,-6.63418 14.90713,-8.41713 l 3.92294,-3.24176 -7.41541,-3.18956 c -13.25936,-5.70319 -22.8128,-8.03297 -24.4649,-5.96623 -2.32142,2.90407 -8.22473,15.04957 -10.6344,21.8793 l -2.19246,6.2141 7.44645,-1.05168 c 4.09554,-0.57841 12.38934,-3.38059 18.43065,-6.22704 z m -80.38869,-29.54477 c 2.14882,-5.40171 4.37876,-12.0153 4.95541,-14.69688 1.0272,-4.77673 0.8163,-4.98843 -10.40347,-10.44259 -6.298559,-3.06186 -13.057521,-6.0402 -15.019912,-6.61853 -3.423411,-1.00888 -3.525826,-0.77651 -2.527514,5.73509 2.085558,13.60326 14.349171,38.7733 17.840273,36.61569 0.686546,-0.4243 3.006391,-5.19106 5.155213,-10.59278 z m 113.38385,0.0934 c 5.20437,-8.87988 10.15707,-23.40554 10.15707,-29.7894 0,-2.49718 -0.52948,-2.55224 -5.9962,-0.62348 -3.29791,1.16357 -9.73861,4.01201 -14.31268,6.32987 -8.18071,4.14548 -8.30345,4.31158 -7.51723,10.17329 0.99915,7.44927 8.93218,25.40356 10.73276,24.29074 0.73486,-0.45417 3.85619,-5.12561 6.93628,-10.381 z m -52.6556,-17.73686 c 15.38969,-7.95832 15.38969,-31.31834 0,-39.27666 -6.39233,-3.3056 -16.65917,-2.92963 -22.74723,0.833 -13.29402,8.21616 -13.27205,28.89417 0.04,37.655 5.65625,3.72244 16.31784,4.09273 22.70722,0.78866 z M 92.965827,145.50316 c 14.177063,-6.70841 13.860973,-6.32937 11.765993,-14.10954 -0.99772,-3.70525 -3.54719,-10.6558 -5.665493,-15.44565 l -3.851453,-8.70882 -5.419905,7.62321 c -6.040161,8.49562 -10.768245,20.13969 -12.339675,30.3895 -0.997975,6.50939 -0.894742,6.7441 2.527514,5.74648 1.962391,-0.57206 7.80475,-3.04489 12.983019,-5.49518 z m 130.329483,-1.15348 c -1.12982,-7.99933 -9.44377,-27.0411 -14.47587,-33.15463 l -3.07236,-3.73265 -4.21247,9.71315 c -2.31687,5.34224 -4.63691,12.36738 -5.15566,15.61144 -0.83522,5.22318 -0.44307,6.22596 3.42616,8.76117 4.45123,2.91656 20.72743,10.06832 23.18788,10.18876 0.74528,0.0365 0.88132,-3.28778 0.30232,-7.38724 z m -88.13869,-36.88547 c 3.79028,-6.51433 10.55777,-23.47713 9.70619,-24.328705 -0.3575,-0.357503 -4.76623,0.200372 -9.79718,1.239721 -9.94874,2.055319 -22.41547,7.762144 -29.01052,13.279983 l -4.17161,3.490231 5.74078,2.80601 c 4.89686,2.39352 21.36683,8.29856 23.78627,8.52819 0.43152,0.0409 2.11725,-2.21599 3.74607,-5.01543 z m 52.36581,-0.77324 c 5.40172,-2.13234 10.17638,-4.45151 10.61037,-5.15371 2.04072,-3.301967 -23.75175,-16.361946 -35.67003,-18.061463 l -7.39251,-1.054151 1.2902,4.498688 c 1.41376,4.929473 9.01899,20.578576 11.50666,23.676976 1.85112,2.30559 6.0158,1.47789 19.65531,-3.90634 z"
         id="path2030"
         inkscape:connector-curvature="0" />
      <path
         style="fill:#000000;fill-opacity:0.94485295;stroke-width:0.60408181"
         d="M 131.67376,245.11647 C 118.60747,242.2803 101.10679,233.50901 91.16872,224.81542 80.344882,215.34698 69.413412,198.89177 64.52916,184.7147 59.032078,168.75883 58.745964,145.01061 63.867978,129.83484 73.429247,101.5062 94.23336,80.509774 122.65932,70.500033 c 14.83794,-5.224937 38.89364,-5.45389 54.25722,-0.5164 21.52364,6.91719 41.95998,23.46396 53.16291,43.044647 10.12508,17.6968 13.61153,43.14007 8.74225,63.79873 -7.92807,33.63605 -36.33211,61.15396 -70.53561,68.33508 -13.38081,2.80933 -23.51759,2.7967 -36.61233,-0.0457 z m 13.03118,-18.38525 c -0.57181,-1.94185 -3.53696,-8.66811 -6.58922,-14.94725 -4.80118,-9.87701 -5.99782,-11.2886 -8.87343,-10.46741 -1.82811,0.52206 -4.7361,1.31927 -6.46219,1.77155 -1.72609,0.4523 -7.26263,2.63982 -12.30343,4.86118 l -9.16509,4.03885 3.67299,2.91781 c 9.34607,7.42453 27.2936,14.77217 37.12363,15.19828 3.05682,0.13244 3.47068,-0.40508 2.59674,-3.37301 z m 26.0424,1.02288 c 8.2506,-2.42762 25.52773,-11.79974 27.43181,-14.88062 1.07788,-1.74404 -13.66921,-8.62332 -22.96138,-10.71114 -6.17309,-1.387 -6.37335,-1.29398 -10.17324,4.72544 -3.32888,5.27328 -10.0964,20.45375 -10.0964,22.64758 0,1.49552 7.55905,0.64328 15.79921,-1.78126 z m -69.04258,-36.58712 c 6.29206,-16.81702 6.43248,-16.33681 -6.614568,-22.62004 -6.346669,-3.05643 -13.202264,-6.02684 -15.234655,-6.60089 -3.585687,-1.01281 -3.661555,-0.84132 -2.55864,5.78323 1.642733,9.86691 6.359241,21.73975 12.047829,30.32795 4.564084,6.8905 5.117311,7.25523 7.03241,4.63619 1.143241,-1.56348 3.540673,-6.75038 5.327624,-11.52644 z m 113.37425,1.67506 c 4.04212,-7.4267 8.91269,-23.23126 8.91269,-28.92085 0,-2.29005 -0.75635,-2.68749 -3.53063,-1.85523 -4.25208,1.2756 -21.62709,9.85249 -24.1761,11.93415 -2.22198,1.81458 -0.47514,9.09133 5.32141,22.16729 3.70645,8.3611 4.22125,8.87139 6.69301,6.63448 1.47274,-1.33283 4.52357,-5.81474 6.77962,-9.95984 z M 163.98924,174.3494 c 17.75961,-13.54592 8.47587,-39.82078 -14.063,-39.80118 -16.55483,0.0144 -26.16889,15.9653 -19.39471,32.1782 4.89769,11.72181 22.75089,15.78947 33.45771,7.62298 z M 93.729298,145.34876 c 12.029322,-6.02087 12.839532,-6.73516 12.060072,-10.63247 -1.22255,-6.11271 -7.005301,-21.09649 -9.412234,-24.38817 -1.915099,-2.61906 -2.468326,-2.25434 -7.03241,4.63617 -8.824039,13.32187 -15.73195,36.83896 -10.821078,36.83896 1.270489,0 8.113032,-2.90452 15.20565,-6.45449 z m 130.262402,2.67136 c 0,-6.85654 -5.62742,-22.02859 -11.67996,-31.49022 l -5.95279,-9.30573 -2.91446,5.42094 c -2.83919,5.28099 -9.72621,25.24079 -8.89747,25.78649 8.30517,5.4688 24.44074,13.05957 28.2678,13.29825 0.64729,0.0404 1.17688,-1.62901 1.17688,-3.70973 z m -85.7378,-46.82268 c 2.96566,-6.25707 5.89339,-13.056957 6.50606,-15.110854 1.09356,-3.666032 0.97444,-3.714631 -6.51003,-2.656071 -7.94377,1.123521 -26.85878,9.45863 -33.34429,14.69353 l -3.75192,3.028425 8.77088,4.14929 c 7.25595,3.43261 16.05554,6.30187 21.81927,7.11456 0.61485,0.0867 3.54436,-4.9618 6.51003,-11.21888 z m 47.38695,6.4772 c 4.36685,-1.6218 9.25795,-3.91264 10.86911,-5.09076 2.75081,-2.01142 2.51976,-2.43876 -3.78954,-7.00919 -7.90666,-5.727563 -19.97375,-10.502303 -30.55079,-12.088427 -7.4278,-1.113867 -7.54266,-1.067617 -6.458,2.600323 0.60737,2.053897 3.60946,8.887727 6.67133,15.186284 5.45477,11.22104 5.66532,11.43074 10.44259,10.40121 2.68157,-0.57789 8.44845,-2.37764 12.8153,-3.99944 z"
         id="path2028"
         inkscape:connector-curvature="0" />
      <path
         style="fill:#000000;fill-opacity:0.94485295;stroke-width:0.60408181"
         d="m 138.31821,246.01736 c -35.71987,-5.50134 -65.039233,-31.39697 -75.137996,-66.36385 -3.42275,-11.85123 -3.42275,-34.43426 0,-46.2855 6.817217,-23.60455 23.778553,-45.019202 44.074556,-55.64662 15.98937,-8.372376 27.08595,-11.103057 44.51666,-10.954799 25.0804,0.213326 44.52211,8.551651 63.1868,27.1001 34.74676,34.530329 34.64718,90.787549 -0.22218,125.533759 -5.69744,5.67733 -13.72537,12.2833 -17.83982,14.67992 -16.7694,9.76801 -40.82823,14.6707 -58.57802,11.93699 z m 6.40902,-19.28614 c -0.55954,-1.94185 -3.42424,-8.70779 -6.36601,-15.03542 -5.32981,-11.46424 -5.36668,-11.50088 -10.46489,-10.39692 -6.66558,1.44335 -19.63654,6.54567 -23.47497,9.2342 -2.91025,2.03843 -2.85962,2.22841 1.39265,5.22504 10.68337,7.52873 27.13559,14.19993 35.5096,14.39876 3.85719,0.0916 4.29124,-0.34527 3.40362,-3.42566 z m 32.58934,-1.16776 c 4.7767,-1.7872 11.70844,-5.43968 15.40385,-8.11663 6.3093,-4.57043 6.54035,-4.99776 3.78954,-7.00919 -3.41152,-2.49458 -16.64211,-7.57254 -23.68441,-9.0902 -4.77727,-1.02953 -4.98782,-0.81983 -10.44259,10.40121 -3.06187,6.29857 -6.06888,13.14788 -6.68226,15.22071 -1.08664,3.67219 -0.93522,3.7441 5.90786,2.80616 3.8627,-0.52944 10.93131,-2.42487 15.70801,-4.21206 z m -77.30165,-30.21569 c 2.49174,-5.39402 4.98268,-12.3381 5.53543,-15.43125 l 1.00498,-5.62394 -10.71768,-5.55125 c -5.894727,-3.05318 -12.744943,-6.02979 -15.222704,-6.61467 l -4.50502,-1.06345 1.09015,7.26965 c 0.599582,3.9983 2.054086,10.00171 3.232228,13.34093 2.211604,6.26836 12.59572,23.48131 14.165647,23.48131 0.487586,0 2.925219,-4.4133 5.416969,-9.80733 z m 116.93966,-6.57633 c 2.96533,-6.09227 5.86332,-14.86385 6.44001,-19.49239 1.0373,-8.32568 1.00839,-8.40365 -2.70783,-7.30424 -2.06599,0.61121 -8.8938,3.60858 -15.17294,6.66085 -8.46571,4.11516 -11.2227,6.20591 -10.66643,8.08883 0.4126,1.3966 1.23066,4.65765 1.81792,7.24679 0.58725,2.58913 2.81131,8.45882 4.94237,13.04376 3.75908,8.08756 3.96536,8.25416 6.91505,5.58473 1.67218,-1.51333 5.46654,-7.73607 8.43185,-13.82833 z m -54.25755,-13.25587 c 7.1526,-5.08951 10.29658,-10.89248 10.29658,-19.00481 0,-17.18083 -17.92451,-27.79171 -33.41535,-19.78109 -14.02987,7.25513 -15.32951,29.04211 -2.28644,38.3296 7.65415,5.45024 18.12269,5.63826 25.40521,0.4563 z M 95.319585,144.99396 c 9.943635,-4.9231 10.191225,-5.19407 9.864985,-10.79635 -0.18404,-3.16059 -2.52594,-10.5546 -5.204205,-16.43114 l -4.869576,-10.68463 -3.198713,3.90796 c -6.940055,8.47885 -15.347159,29.34798 -15.403933,38.23751 -0.02416,3.78215 4.826673,2.69052 18.811442,-4.23335 z m 128.165705,-1.15768 c -1.0718,-9.04953 -6.69756,-22.29619 -12.95093,-30.49479 -4.01136,-5.25916 -4.34733,-5.397 -6.31335,-2.59012 -1.14209,1.63056 -3.92108,8.45945 -6.17551,15.17532 -3.31007,9.86054 -3.69926,12.48041 -2.02206,13.6122 6.48255,4.37453 23.07852,11.84229 27.00995,12.15379 0.7675,0.0608 0.97085,-3.47457 0.4519,-7.8564 z m -85.06314,-42.63884 c 7.82707,-16.839839 8.12464,-18.437769 3.43356,-18.437769 -7.05561,0 -22.39585,5.70889 -31.40017,11.685613 -4.8726,3.234245 -8.85927,6.146716 -8.85927,6.472156 0,1.93377 23.98836,11.34402 29.49933,11.57212 1.12134,0.0464 4.41829,-5.03504 7.32655,-11.29212 z m 41.91616,8.41058 c 4.74131,-1.63125 10.91732,-4.1536 13.72445,-5.60522 4.9503,-2.55991 5.01978,-2.73219 2.3096,-5.72691 -4.48517,-4.956048 -24.21705,-13.779536 -33.36346,-14.919094 -8.31657,-1.036172 -8.40302,-1.004335 -7.35239,2.707826 2.22143,7.848948 12.10359,26.509318 14.03882,26.509318 1.11231,0 5.90164,-1.33466 10.64298,-2.96592 z"
         id="path2026"
         inkscape:connector-curvature="0" />
      <path
         style="fill:#000000;fill-opacity:0.94485295;stroke-width:0.60408181"
         d="M 138.97424,245.69622 C 113.11728,242.5548 89.46394,227.46653 74.779578,204.74698 65.306868,190.09084 62.065112,179.89115 61.18867,161.98521 c -0.954862,-19.50809 1.152301,-30.18159 9.07145,-45.94995 9.880665,-19.674077 28.371496,-36.125488 49.9374,-44.429628 12.50687,-4.815878 39.96993,-5.973323 52.92663,-2.23062 56.34332,16.275465 83.45397,75.663948 58.04339,127.149638 -10.58096,21.43865 -28.6197,37.05058 -51.82793,44.85534 -14.6333,4.92108 -25.67163,6.1014 -40.36537,4.31623 z m 6.55885,-17.16461 c 0,-0.95163 -2.80681,-7.71984 -6.23737,-15.04045 l -6.23737,-13.31021 -5.13913,1.10861 c -7.30617,1.57607 -20.49031,6.61978 -23.98649,9.17625 -2.77287,2.02757 -2.3696,2.55293 6.13617,7.994 14.46796,9.25504 35.46419,15.21796 35.46419,10.0718 z m 32.84419,-3.08024 c 4.36255,-1.87671 11.1382,-5.69181 15.05701,-8.47799 l 7.12511,-5.06575 -9.07537,-4.03155 c -13.81292,-6.13611 -22.53435,-8.1399 -24.32192,-5.58806 -2.19625,3.13519 -10.21455,20.38537 -11.47343,24.68331 -1.08607,3.70799 -0.97241,3.75513 6.82612,2.83151 4.36183,-0.5166 11.49995,-2.47476 15.86248,-4.35147 z M 102.22114,190.8832 c 6.04138,-16.29876 6.05122,-16.27246 -8.780016,-23.44467 -16.882466,-8.16419 -17.591762,-8.11288 -16.19946,1.17165 1.569618,10.46697 6.272667,22.25682 11.967338,30.00037 6.022825,8.18978 7.419695,7.36024 13.012138,-7.72735 z m 108.74396,9.16137 c 9.23404,-13.62228 16.63324,-38.82629 11.39831,-38.82629 -2.98768,0 -28.18598,12.41105 -28.18598,13.88259 0,5.95473 9.99469,30.07316 12.45003,30.04351 0.48836,-0.006 2.4403,-2.30081 4.33764,-5.09981 z m -50.52458,-23.13471 c 12.04634,-5.83153 16.6844,-20.38196 9.99484,-31.35555 -4.18092,-6.85839 -6.91072,-8.96568 -14.31035,-11.04698 -12.063,-3.39298 -24.15525,3.84509 -27.66602,16.56006 -3.70411,13.41519 7.75028,28.69557 21.67849,28.91954 2.10089,0.0337 6.73726,-1.3509 10.30304,-3.07707 z M 95.319585,145.04144 c 9.804775,-4.92242 10.193285,-5.33957 10.035925,-10.77577 -0.09,-3.11031 -2.43761,-10.49907 -5.21685,-16.41947 l -5.053152,-10.76436 -3.150634,3.86419 c -7.974785,9.78092 -15.445355,28.26642 -15.445355,38.21866 0,3.90758 5.02582,2.80707 18.830066,-4.12325 z m 128.348145,-0.76527 c -1.14901,-11.95795 -14.62242,-38.0254 -18.4359,-35.66853 -1.62921,1.0069 -8.75266,18.78918 -10.17442,25.39842 -1.05499,4.90426 -0.93262,5.02262 11.76204,11.3765 16.85875,8.43807 17.75971,8.37891 16.84828,-1.10639 z m -87.10459,-38.59373 c 3.24688,-5.8093 8.96995,-20.241391 8.96995,-22.619872 0,-0.388966 -3.70716,-0.229855 -8.23815,0.35358 -9.1172,1.173984 -24.5435,7.937838 -31.70391,13.900984 l -4.63569,3.860578 5.33982,2.76132 c 6.75667,3.49402 20.37921,8.36991 23.80435,8.52026 1.52078,0.0667 4.22095,-2.76426 6.46363,-6.77685 z m 41.13798,5.14933 c 3.45218,-0.94857 9.93203,-3.50528 14.39967,-5.68158 l 8.12298,-3.9569 -4.4396,-3.735673 c -11.3269,-9.530952 -40.83604,-18.740421 -40.83604,-12.744462 0,3.882277 12.58048,27.861575 14.61225,27.852035 1.02524,-0.005 4.68857,-0.78485 8.14074,-1.73342 z"
         id="path2024"
         inkscape:connector-curvature="0" />
      <path
         style="fill:#000000;fill-opacity:0.94485295;stroke-width:0.60408181"
         d="m 127.65718,243.56527 c -24.06505,-6.60755 -47.513621,-25.99391 -57.846474,-47.8252 -3.063624,-6.47284 -6.344828,-15.51072 -7.291567,-20.08418 -2.202303,-10.6388 -2.202303,-27.65145 0,-38.29025 6.407037,-30.95085 34.060474,-59.530226 65.764931,-67.966984 11.24025,-2.991101 33.01092,-2.958122 44.62747,0.0676 30.08731,7.836749 55.85366,32.869144 64.56138,62.722334 4.17426,14.31089 3.77685,36.3665 -0.91838,50.96868 -4.47906,13.92992 -16.18784,32.03182 -26.36747,40.76441 -9.44943,8.1062 -25.52318,16.5725 -37.27553,19.63359 -11.19578,2.91612 -34.65121,2.92131 -45.25436,0.009 z m 17.14856,-17.61864 c -1.66258,-6.72026 -10.62112,-24.16815 -12.84773,-25.02258 -2.34628,-0.90036 -16.01213,3.36481 -24.59373,7.67578 -5.04665,2.53518 -5.6903,3.38862 -4.04803,5.36743 5.36426,6.46353 27.59796,16.14918 37.28715,16.24336 4.96916,0.0483 5.20899,-0.19503 4.20234,-4.26399 z m 35.96478,-1.69885 c 5.81573,-2.72151 12.61936,-6.66921 15.11921,-8.77269 l 4.54515,-3.82449 -8.22853,-3.87013 c -8.05171,-3.78695 -18.93465,-7.30671 -22.64597,-7.32413 -2.026,-0.01 -14.61225,23.96449 -14.61225,27.8331 0,3.80927 13.59121,1.68199 25.82239,-4.04166 z M 99.679877,197.70153 c 4.672623,-10.96043 7.171263,-20.24015 6.159653,-22.87636 -0.95703,-2.49398 -17.937479,-11.26645 -25.034788,-12.93353 -3.777151,-0.88719 -4.312901,-0.55213 -4.296599,2.68716 0.02658,5.28353 3.720542,18.44641 6.983461,24.88458 3.553519,7.01156 10.033662,15.69172 11.714603,15.69172 0.712846,0 2.725996,-3.3541 4.47367,-7.45357 z m 111.264133,2.34304 c 6.52314,-9.68234 11.34602,-20.99808 12.74102,-29.89379 1.24921,-7.9662 1.10659,-8.9325 -1.31834,-8.9325 -3.33671,0 -28.18926,12.28569 -28.18926,13.93516 0,5.85322 9.82235,30.01313 12.19297,29.99094 0.62976,-0.006 2.68787,-2.30081 4.57361,-5.09981 z m -49.37859,-23.51454 c 16.86879,-9.4808 15.61009,-33.62509 -2.13638,-40.97993 -9.17546,-3.80268 -16.7058,-2.57804 -24.10723,3.92051 -10.02349,8.80074 -10.57473,24.13469 -1.19024,33.10893 8.48484,8.11391 17.67213,9.43688 27.43385,3.95049 z M 93.080908,146.40759 c 6.423002,-2.96761 12.146132,-6.61511 12.718072,-8.10556 1.22223,-3.18509 -5.25291,-23.17033 -9.010623,-27.81092 -2.56008,-3.16156 -2.66531,-3.11192 -7.473815,3.52603 -5.663598,7.81837 -10.97276,21.16016 -12.313831,30.94435 -1.184064,8.63868 0.23633,8.76642 16.080197,1.4461 z m 130.632712,-3.35445 c -1.2943,-8.25369 -9.19524,-25.91866 -14.68507,-32.83296 -2.46184,-3.10064 -2.51888,-3.10177 -4.74744,-0.0939 -2.5878,3.4928 -7.65163,16.59734 -9.21342,23.8432 -0.95654,4.4378 -0.50471,5.26266 4.61609,8.4275 6.56933,4.06006 19.24132,9.22597 22.89349,9.33283 2.16607,0.0634 2.32118,-1.12109 1.13635,-8.67671 z m -84.94465,-41.4634 c 2.75257,-5.609794 5.50489,-12.252187 6.11626,-14.760878 l 1.11159,-4.561255 -8.47002,0.995388 c -9.11722,1.071448 -28.80913,9.920213 -33.42375,15.019316 -2.72726,3.013589 -2.62286,3.185109 4.01557,6.597589 8.74203,4.49384 18.50698,7.62874 22.50734,7.22567 2.1712,-0.21877 4.68064,-3.45945 8.14301,-10.51583 z m 43.63468,7.84757 c 5.01423,-1.72514 11.18211,-4.44431 13.70642,-6.04259 l 4.58966,-2.90596 -8.36096,-5.545032 C 181.2891,87.615532 173.56199,84.515273 163.35759,83.315946 c -10.42403,-1.22514 -10.48596,-0.761278 -2.18922,16.39533 7.01315,14.502294 7.15887,14.569034 21.23528,9.726034 z"
         id="path2022"
         inkscape:connector-curvature="0" />
      <path
         style="fill:#000000;fill-opacity:0.94485295;stroke-width:0.60408181"
         d="m 128.2722,243.47596 c -27.97206,-7.36076 -51.292979,-28.57517 -62.342689,-56.71145 -3.737183,-9.51613 -4.177246,-12.70944 -4.16919,-30.25375 0.0078,-17.07581 0.512923,-20.93791 3.902192,-29.83792 C 86.106328,72.988577 148.29997,50.892412 197.0448,79.995317 c 17.87892,10.67454 32.03391,28.296953 38.92408,48.459023 3.23482,9.46571 3.96128,14.58852 3.97872,28.05642 0.0187,14.43133 -0.56229,18.06993 -4.68067,29.31603 -5.53905,15.12552 -11.91788,24.94309 -23.43672,36.07111 -9.5075,9.18493 -29.48977,19.71023 -42.44447,22.35686 -11.38482,2.32589 -30.70605,1.9599 -41.11354,-0.7788 z m 16.58753,-17.52933 c -1.65338,-7.03901 -10.4304,-24.07425 -12.89,-25.01808 -2.69707,-1.03496 -21.01862,4.73466 -26.55552,8.36258 -3.0152,1.97563 -3.48019,3.01064 -2.0998,4.67392 5.25048,6.32643 27.426,16.20371 36.5044,16.25955 5.81028,0.0358 6.01362,-0.13683 5.04092,-4.27797 z m 37.11794,-1.92096 c 5.41531,-2.69597 11.89161,-6.56521 14.39179,-8.59831 l 4.54576,-3.69655 -6.11494,-3.1006 c -8.88294,-4.50411 -23.43889,-8.79528 -26.21749,-7.72902 -2.53244,0.97178 -11.04383,17.57647 -12.9628,25.28884 l -1.13426,4.55861 8.82296,-0.9106 c 5.17283,-0.53388 12.89637,-2.93853 18.66898,-5.81237 z m -81.59084,-27.7775 c 2.8117,-6.00847 4.95141,-13.20225 5.01737,-16.86861 l 0.115,-6.39249 -11.768787,-5.8589 c -6.472836,-3.22238 -13.102872,-5.87036 -14.733415,-5.88439 -2.647694,-0.0227 -2.862604,0.83588 -2.01033,8.032 1.025574,8.65938 8.165364,25.40878 13.963195,32.75661 1.960825,2.48503 3.778768,4.55731 4.039872,4.60506 0.261105,0.0477 2.680798,-4.62743 5.377095,-10.38928 z m 117.4103,-7.56938 c 2.47628,-5.17827 5.14007,-13.54432 5.91955,-18.59122 l 1.41722,-9.17619 -4.84058,0.96812 c -2.66232,0.53246 -9.45098,3.32275 -15.08594,6.20066 -10.06941,5.14268 -10.23899,5.33459 -9.87441,11.17497 0.20402,3.26833 2.64126,10.86793 5.41609,16.88798 l 5.04513,10.94554 3.7503,-4.4974 c 2.06268,-2.47358 5.77636,-8.73419 8.25264,-13.91246 z m -57.17085,-11.17767 c 15.42092,-7.31769 17.39623,-30.09411 3.46995,-40.0105 -11.36369,-8.09166 -28.11547,-3.86176 -34.16054,8.62568 -4.03907,8.34361 -4.06022,12.40162 -0.10722,20.56744 5.61879,11.60687 19.13194,16.3532 30.7978,10.81738 z m -62.952937,-33.1978 c 5.996287,-3.26253 7.960297,-5.25909 8.331317,-8.46939 0.51909,-4.49161 -8.505832,-27.9675 -10.751649,-27.9675 -4.901532,0 -17.024043,24.39823 -18.309146,36.84969 l -0.889035,8.61392 6.886326,-2.37893 c 3.787479,-1.30841 10.416964,-4.29992 14.732187,-6.64779 z m 126.922227,2.40012 c -2.11011,-12.13405 -5.6295,-21.62198 -11.10365,-29.93437 -3.22457,-4.89646 -6.39989,-8.90264 -7.05627,-8.90264 -2.34325,0 -12.25822,23.57562 -12.25822,29.14735 0,3.56207 21.29084,14.51793 28.59817,14.71607 2.19804,0.0596 2.54012,-0.88515 1.81997,-5.02641 z m -85.78803,-45.1137 c 2.77378,-5.609794 5.52579,-12.250999 6.11559,-14.758238 l 1.07236,-4.558618 -8.64619,0.892366 c -8.91644,0.920258 -21.61478,6.403334 -30.79867,13.298708 -6.50917,4.887162 -5.30622,6.471722 9.16819,12.076672 15.04479,5.8258 17.07318,5.21516 23.08872,-6.95089 z m 52.23155,4.52561 10.19962,-4.76854 -4.70752,-3.945123 c -7.59744,-6.367026 -23.45316,-13.20991 -32.85795,-14.180568 -5.44388,-0.56186 -8.72511,-0.302031 -8.72511,0.690906 0,3.142004 4.88584,15.352508 8.84905,22.115215 3.96903,6.77264 4.15474,6.87615 10.54124,5.87538 3.57558,-0.5603 11.09088,-3.16457 16.70067,-5.78727 z"
         id="path2020"
         inkscape:connector-curvature="0" />
      <path
         style="fill:#000000;fill-opacity:0.94485295;stroke-width:0.60408181"
         d="M 129.28423,243.46802 C 98.046058,235.90604 70.629111,208.22108 63.210305,176.7482 52.01643,129.2603 82.590856,80.650131 130.80371,69.281682 c 13.68944,-3.227928 35.25121,-2.178679 48.18475,2.344789 27.70938,9.691277 49.90506,33.050009 58.19002,61.239219 3.326,11.31658 3.31356,36.04183 -0.0239,47.29014 -13.90219,46.8561 -61.1921,74.61187 -107.87044,63.31219 z m 14.46109,-21.2474 c -4.64556,-12.22613 -9.07556,-20.25598 -11.73888,-21.27799 -2.96049,-1.13605 -12.82451,1.7057 -23.73156,6.83688 l -8.22853,3.87109 4.3056,3.60562 c 7.07321,5.92328 23.30177,13.36686 32.13158,14.73783 4.54574,0.70578 8.72681,1.05498 9.29128,0.77598 0.56446,-0.279 -0.34881,-4.12623 -2.02949,-8.54941 z m 28.4637,6.11442 c 7.53292,-2.24936 18.66063,-8.09194 24.32217,-12.77032 l 4.70752,-3.89001 -10.44898,-4.91 c -5.76801,-2.71038 -13.48903,-5.04944 -17.23505,-5.22126 l -6.78606,-0.31128 -5.90935,11.76879 c -3.25014,6.47284 -5.90975,13.31319 -5.91024,15.20078 -8.1e-4,3.06727 0.62441,3.34384 5.88349,2.60263 3.23642,-0.45616 8.35585,-1.56736 11.3765,-2.46933 z M 99.041081,199.27071 c 5.938789,-11.72786 9.257309,-24.23182 6.874149,-25.90139 -4.73399,-3.31648 -24.099574,-12.15104 -26.635391,-12.15104 -6.583596,0 -0.08907,25.04261 9.950286,38.36781 2.917681,3.87263 5.46951,7.06297 5.670733,7.08966 0.201222,0.0267 2.064322,-3.30558 4.140223,-7.40504 z m 117.763669,-8.23816 c 4.24024,-8.27073 6.54967,-15.5203 7.82586,-24.56621 0.86832,-6.15482 0.72212,-6.47223 -2.60553,-5.65674 -4.99061,1.22303 -21.78182,9.01287 -25.34681,11.75899 -2.72181,2.0966 -2.81902,2.9882 -1.07917,9.89782 1.05166,4.17651 3.78347,11.41544 6.07067,16.08654 l 4.15856,8.49288 3.67813,-4.476 c 2.02297,-2.4618 5.3072,-7.65358 7.29829,-11.53728 z m -55.61121,-13.73269 c 16.79714,-8.43918 16.79714,-33.13901 0,-41.57819 -11.75063,-5.90372 -26.2366,-1.16229 -31.43564,10.28924 -3.907,8.60565 -3.80778,13.07408 0.47577,21.42776 5.96483,11.63247 19.10433,15.81761 30.95987,9.86119 z M 99.689904,143.59503 c 3.092226,-1.95831 6.200086,-3.95635 6.906376,-4.44008 1.66482,-1.14021 -2.71582,-15.8474 -7.583341,-25.45966 l -3.802506,-7.50911 -3.568293,4.37076 c -8.512313,10.42663 -15.152621,26.52442 -15.152621,36.7338 v 5.91264 L 85.2786,150.1795 c 4.833995,-1.66314 11.319082,-4.62615 14.411304,-6.58447 z m 124.331846,-0.23761 c -1.67975,-10.32073 -7.29359,-23.4646 -13.49384,-31.59356 l -4.24328,-5.56322 -2.96581,4.87689 c -4.15013,6.82435 -9.71712,24.40866 -8.62692,27.24968 1.35533,3.53191 28.23845,16.22024 30.44254,14.36831 0.19698,-0.16551 -0.30373,-4.36765 -1.11269,-9.3381 z m -87.1992,-36.90209 c 4.81951,-9.510848 10.13164,-23.320676 9.29315,-24.159171 -0.34323,-0.343229 -4.67496,-0.0042 -9.62607,0.753432 -10.09082,1.544097 -22.33653,6.97127 -30.66645,13.591062 l -5.55521,4.414717 4.87867,2.88191 c 3.59034,2.12086 22.95247,9.27943 27.41435,10.13563 0.20122,0.0386 2.11892,-3.3893 4.26156,-7.61758 z m 53.82001,-0.12965 10.59615,-4.97886 -4.70752,-3.945128 c -7.3315,-6.144155 -23.37017,-13.214362 -32.91483,-14.5096 -7.657,-1.039078 -8.66823,-0.856003 -8.66823,1.569302 0,3.357526 5.32302,15.999436 9.75882,23.176716 2.9928,4.84246 3.77297,5.21782 9.30312,4.47607 3.31999,-0.4453 10.80461,-3.05013 16.63249,-5.7885 z"
         id="path2018"
         inkscape:connector-curvature="0" />
    </g>
  </g>
  <g
     inkscape:groupmode="layer"
     id="layer2"
     inkscape:label="Paths" />
</svg>
